<?xml version="1.0" standalone="no"?>
<!DOCTYPE svg PUBLIC "-//W3C//DTD SVG 20010904//EN"
 "http://www.w3.org/TR/2001/REC-SVG-20010904/DTD/svg10.dtd">
<svg version="1.0" xmlns="http://www.w3.org/2000/svg"
 width="626.000000pt" height="376.000000pt" viewBox="0 0 626.000000 376.000000"
 preserveAspectRatio="xMidYMid meet">

<g transform="translate(0.000000,376.000000) scale(0.100000,-0.100000)"
fill="#000000" stroke="none">
<path d="M581 3744 c0 -11 3 -14 6 -6 3 7 2 16 -1 19 -3 4 -6 -2 -5 -13z"/>
<path d="M775 3751 c-13 -12 -186 -101 -197 -101 -17 0 -88 -53 -88 -66 0 -7
-8 -18 -17 -23 -16 -10 -16 -11 5 -17 29 -8 28 -16 -5 -32 -16 -6 -46 -28 -68
-47 -26 -24 -31 -31 -15 -23 14 7 28 17 31 21 7 10 59 -2 59 -14 0 -4 -7 -12
-16 -17 -11 -6 -15 -18 -12 -35 3 -15 0 -28 -6 -31 -6 -2 -4 -5 4 -5 18 0 60
33 60 48 0 15 30 14 30 -1 1 -8 6 -6 14 5 8 10 20 15 30 11 12 -5 15 -2 9 12
-4 11 -3 15 4 11 6 -4 13 3 16 14 4 14 11 20 21 16 10 -4 13 -1 10 8 -4 9 3
16 20 21 13 3 26 13 28 21 2 8 19 21 38 28 19 7 44 16 54 20 15 6 17 5 11 -5
-5 -8 5 -5 24 6 17 10 31 22 31 27 0 4 -5 5 -12 1 -7 -4 -8 -3 -4 4 7 11 36 6
36 -7 0 -3 -18 -19 -40 -35 -21 -16 -37 -32 -35 -36 2 -4 -1 -7 -8 -7 -7 0
-34 -15 -60 -34 -41 -28 -50 -31 -58 -19 -8 11 -9 10 -4 -7 4 -14 2 -23 -4
-23 -6 0 -11 5 -11 10 0 6 -4 10 -9 10 -5 0 -7 -8 -4 -18 3 -14 -6 -23 -36
-37 -23 -10 -41 -22 -41 -27 0 -4 -7 -8 -16 -8 -19 0 -43 -28 -44 -49 0 -8 -7
-19 -16 -26 -15 -11 -15 -12 5 -18 11 -3 19 -2 16 3 -3 4 2 10 10 14 8 3 17 1
21 -5 3 -6 19 0 37 14 47 34 57 39 57 27 0 -6 -16 -20 -35 -32 -22 -12 -35
-27 -33 -37 2 -9 -7 -28 -20 -41 -12 -13 -22 -27 -22 -31 0 -4 -12 -14 -26
-24 -22 -14 -28 -15 -35 -4 -6 10 -9 10 -9 2 0 -24 21 -23 64 2 25 14 50 23
60 19 12 -5 15 -2 9 12 -5 13 -3 16 9 11 9 -3 24 1 35 8 26 20 31 18 31 -11 0
-17 -5 -24 -14 -20 -8 3 -14 -1 -14 -9 0 -8 -4 -15 -8 -15 -5 0 -20 -10 -33
-21 -13 -12 -39 -33 -57 -47 -18 -13 -30 -27 -28 -30 5 -5 73 35 78 46 2 4 24
18 51 31 26 13 47 27 47 31 0 14 211 113 220 104 12 -12 -184 -164 -211 -164
-6 0 -7 -4 -4 -10 3 -5 1 -10 -5 -10 -7 0 -10 -6 -8 -12 3 -7 -19 -33 -48 -57
-37 -31 -50 -48 -44 -56 6 -7 6 -16 2 -20 -4 -4 8 0 25 11 23 13 36 15 43 8 8
-8 20 -2 43 19 35 33 116 87 130 87 16 0 -5 -20 -40 -39 -22 -11 -32 -21 -24
-25 6 -4 11 -2 11 3 0 6 5 11 11 11 5 0 7 -5 4 -10 -7 -12 37 -7 57 7 13 8 61
12 53 4 -3 -2 0 -10 6 -17 12 -15 -28 -67 -44 -57 -6 3 -7 1 -3 -5 4 -7 2 -12
-3 -12 -6 0 -19 -8 -30 -17 -10 -10 -29 -26 -42 -35 -41 -31 -9 -19 36 13 41
30 86 35 69 8 -5 -8 -1 -8 14 0 26 14 32 14 32 1 0 -5 -5 -10 -11 -10 -19 0
-98 -54 -99 -67 0 -15 17 -17 22 -3 4 13 78 42 78 31 0 -6 -9 -17 -21 -25 -13
-9 -18 -19 -14 -27 5 -7 4 -10 -2 -6 -12 8 -87 -42 -77 -51 4 -4 9 -1 11 5 3
7 21 17 41 23 20 5 53 24 72 41 19 17 55 40 80 50 24 11 48 25 51 31 4 6 23
12 42 12 30 1 34 4 26 18 -5 9 -9 19 -9 21 0 9 47 54 63 60 9 3 17 15 17 27 0
14 15 27 50 45 46 24 78 26 65 5 -7 -12 23 -6 37 8 8 8 5 9 -11 5 -11 -3 -21
-2 -21 2 0 13 30 36 40 30 5 -3 10 -2 10 3 0 16 69 52 87 45 11 -4 14 -3 9 5
-4 8 2 16 17 21 14 6 27 16 30 23 3 10 9 10 24 2 16 -10 19 -9 20 8 2 25 9 32
23 23 16 -10 2 -46 -32 -78 -24 -23 -32 -26 -44 -16 -12 10 -13 9 -8 -5 4 -11
-3 -24 -22 -39 -16 -12 -29 -20 -29 -17 -1 3 -17 -7 -36 -23 -19 -15 -39 -31
-45 -36 -6 -5 -20 -12 -32 -15 -12 -4 -33 -21 -46 -37 -14 -17 -30 -28 -35
-24 -5 3 -16 -4 -25 -16 -8 -12 -19 -18 -25 -14 -6 3 -11 -1 -11 -10 0 -9 -5
-13 -10 -10 -6 3 -13 -1 -16 -9 -3 -8 -14 -18 -25 -21 -11 -4 -17 -10 -14 -14
2 -5 -4 -16 -14 -25 -10 -10 -21 -14 -23 -9 -3 4 -3 3 -2 -4 3 -12 -33 -29
-51 -24 -5 1 -5 -3 1 -9 9 -9 22 -6 52 9 67 34 61 24 -13 -24 -39 -25 -75 -45
-80 -45 -6 0 -18 -8 -26 -17 -23 -26 -72 -63 -83 -63 -5 0 -7 -3 -3 -6 6 -6
72 30 95 53 23 22 152 96 158 90 3 -3 -8 -13 -25 -22 -34 -17 -41 -28 -13 -19
11 4 8 -1 -8 -15 -14 -11 -20 -21 -14 -21 5 0 15 5 21 11 6 6 17 9 25 7 7 -3
-15 -23 -52 -46 -36 -22 -72 -47 -80 -54 -8 -7 -17 -11 -19 -8 -3 3 -14 -12
-25 -32 -10 -21 -22 -35 -26 -33 -4 3 -10 -4 -13 -15 -3 -11 -11 -20 -17 -20
-9 0 -9 4 1 16 7 8 -8 3 -34 -13 -44 -27 -58 -43 -37 -43 6 0 10 5 10 11 0 6
7 9 15 5 8 -3 15 -1 15 4 0 5 9 7 20 5 11 -2 20 0 20 6 0 5 5 9 10 9 6 0 21 9
33 21 29 27 57 42 57 31 0 -6 -17 -22 -37 -38 -47 -35 -63 -50 -63 -60 0 -4
10 2 23 14 13 12 27 19 30 15 4 -3 7 1 7 10 0 8 8 18 18 20 87 24 112 33 112
40 0 5 9 5 20 2 15 -5 20 -2 20 10 0 11 5 15 14 12 8 -3 16 -2 18 3 5 14 78
42 78 30 0 -5 -15 -16 -32 -23 -18 -8 -40 -22 -48 -33 -12 -14 -8 -13 18 5 17
12 40 21 50 18 13 -3 11 -6 -10 -15 -16 -6 -28 -13 -28 -14 0 -2 22 -1 50 0
27 2 48 7 45 11 -2 5 7 14 20 21 14 7 25 17 25 22 0 5 5 6 11 3 5 -4 18 3 28
14 11 13 25 19 35 15 9 -3 16 -1 16 5 0 6 4 11 10 11 5 0 49 28 97 63 48 34
154 106 234 160 80 54 155 107 167 118 12 11 22 15 22 10 0 -5 -14 -21 -31
-34 l-31 -24 26 -5 c15 -3 24 -3 21 0 -8 8 26 42 42 42 8 0 12 4 8 10 -3 5 8
16 24 25 35 18 45 19 36 5 -3 -6 1 -13 9 -16 12 -5 10 -10 -10 -29 -13 -12
-38 -28 -54 -35 -17 -7 -30 -17 -30 -22 0 -5 -9 -7 -19 -3 -14 4 -21 0 -26
-15 -3 -11 -12 -20 -20 -20 -7 0 -15 -7 -19 -15 -3 -8 -12 -15 -21 -15 -8 0
-15 -4 -15 -8 0 -5 -11 -15 -25 -22 -13 -7 -22 -17 -19 -22 3 -4 -3 -8 -12 -8
-16 0 -126 -75 -132 -91 -2 -4 -10 -5 -18 -2 -8 3 -14 -1 -14 -10 0 -8 -7 -18
-16 -21 -22 -8 -26 -8 -19 4 3 6 -1 7 -10 3 -13 -4 -14 -8 -4 -14 8 -4 11 -10
9 -12 -3 -2 -26 -19 -52 -37 -27 -18 -48 -37 -48 -42 0 -4 -3 -7 -7 -6 -14 4
-73 -36 -73 -49 0 -15 -26 -17 -35 -3 -3 5 10 19 29 31 36 21 49 36 22 26 -7
-3 -19 -1 -25 4 -6 5 -9 6 -6 3 3 -4 -21 -27 -53 -51 -31 -24 -88 -72 -125
-106 -38 -34 -88 -74 -110 -89 -23 -15 -42 -34 -42 -42 0 -7 -6 -21 -14 -30
-7 -9 -9 -16 -3 -16 5 0 15 7 22 15 7 8 19 15 26 15 8 0 14 4 14 9 0 5 15 14
33 21 17 7 46 18 62 26 26 12 32 11 43 -3 19 -27 14 -38 -23 -53 -20 -8 -43
-22 -52 -32 -9 -10 -20 -18 -26 -18 -9 0 -141 -91 -187 -130 -20 -17 -21 -19
-4 -11 11 5 26 17 34 25 7 9 20 16 30 16 10 0 23 7 30 15 7 8 19 15 26 15 8 0
14 4 14 8 0 5 18 14 40 21 25 7 40 18 40 28 0 9 3 13 6 10 7 -7 107 42 112 56
2 4 10 7 18 7 8 0 14 4 14 10 0 5 6 7 14 4 8 -3 17 0 22 7 4 8 3 10 -4 5 -7
-4 -12 -2 -12 4 0 7 9 14 19 17 19 5 19 5 -1 25 -11 11 -17 26 -14 34 6 15 -9
20 -19 5 -3 -6 -20 -17 -37 -26 -24 -12 -33 -12 -39 -3 -11 18 -3 25 36 32 19
4 41 16 49 27 10 14 26 21 50 22 26 1 32 3 21 10 -8 4 -13 13 -10 18 4 5 11 7
16 4 5 -4 9 -2 9 4 0 6 6 8 14 5 8 -3 17 0 21 5 3 6 11 8 17 5 7 -5 8 -2 3 6
-6 10 -4 12 8 7 11 -4 14 -2 10 9 -3 7 -1 14 5 14 6 0 12 -4 14 -9 2 -5 28 11
58 35 30 24 63 47 72 50 10 4 15 10 13 15 -3 4 3 13 14 18 11 6 26 17 33 23
23 22 79 60 91 63 21 4 51 18 87 40 42 26 80 40 80 28 0 -10 -104 -83 -118
-83 -6 0 -12 -4 -14 -9 -1 -5 -46 -40 -99 -77 -156 -112 -211 -155 -205 -162
4 -3 -4 -16 -16 -30 l-23 -24 44 24 c24 13 46 29 48 36 8 19 50 15 56 -7 5
-22 -3 -38 -23 -43 -28 -6 -53 -38 -53 -67 0 -19 -4 -28 -11 -24 -6 4 -5 -1 3
-10 10 -12 17 -14 26 -7 9 8 14 6 19 -6 8 -21 -3 -84 -15 -84 -16 0 -23 -4
-50 -31 -20 -20 -26 -34 -23 -58 2 -21 -1 -31 -9 -31 -11 0 -47 -58 -47 -74 0
-2 17 5 38 16 20 10 36 24 34 29 -1 6 2 8 8 4 5 -3 22 2 38 13 34 23 165 81
195 86 16 2 21 9 19 24 -2 16 4 22 30 27 18 4 42 15 52 24 14 12 20 13 23 4 3
-10 9 -9 21 3 12 13 17 14 20 4 5 -14 -17 -34 -82 -80 -55 -38 -80 -60 -69
-60 9 0 58 33 73 50 16 17 90 70 98 70 6 0 8 9 5 20 -4 15 0 20 13 20 16 0 17
2 4 10 -13 9 -13 11 0 20 8 6 28 13 43 17 18 4 26 11 23 19 -3 9 12 21 42 34
25 11 50 26 54 33 4 6 11 8 15 3 4 -4 -8 -20 -27 -35 -19 -14 -50 -41 -70 -59
-27 -26 -29 -31 -11 -22 36 18 242 155 270 179 26 23 37 26 46 12 6 -11 -67
-65 -156 -115 -19 -10 -36 -22 -39 -26 -3 -3 -36 -28 -75 -55 -122 -84 -195
-137 -195 -140 0 -10 223 134 228 146 2 5 10 9 18 9 9 0 12 -5 8 -12 -4 -8 -3
-10 2 -5 5 5 9 13 9 18 0 5 18 20 40 34 41 24 41 24 54 3 11 -18 10 -19 -11
-13 -16 4 -19 4 -9 -3 11 -8 5 -15 -25 -31 -27 -15 -31 -20 -14 -16 46 11 106
46 151 87 24 22 37 37 29 33 -8 -4 -6 2 6 14 11 12 30 23 42 24 11 0 20 6 19
12 -1 5 6 9 15 9 10 -1 16 2 13 6 -7 11 52 53 64 46 5 -3 28 6 51 21 30 20 37
29 26 31 -14 3 -15 6 -4 20 11 13 11 15 -2 7 -42 -24 -125 -81 -128 -87 -5
-11 -22 -10 -22 2 0 8 114 90 125 90 2 0 16 11 31 25 15 14 33 25 39 25 7 0
15 7 19 15 3 8 10 14 15 13 5 -2 20 9 34 25 14 15 31 27 36 27 6 0 27 12 48
26 24 17 30 24 16 19 -14 -4 -23 -2 -23 4 0 6 8 11 17 11 16 0 16 1 0 13 -16
11 -10 16 45 45 35 18 113 65 173 103 128 82 205 123 205 110 0 -5 -7 -12 -16
-15 -9 -4 -15 -9 -12 -12 7 -6 58 17 58 27 0 4 -6 9 -12 12 -7 2 -9 8 -5 13 4
5 12 2 17 -6 7 -12 24 -4 87 39 43 30 88 63 100 74 29 26 42 14 17 -15 -15
-17 -12 -16 17 5 20 15 41 27 47 27 7 0 12 5 12 10 0 6 5 10 11 10 6 0 25 11
43 25 18 14 36 22 39 18 4 -3 7 -1 7 5 0 7 5 12 12 12 6 0 19 7 29 16 19 17
49 13 49 -7 0 -6 -6 -9 -14 -6 -13 5 -56 -26 -56 -41 0 -4 -17 -18 -38 -32
-20 -13 -68 -49 -107 -80 -84 -66 -229 -172 -307 -224 -32 -21 -58 -40 -58
-43 0 -3 11 2 25 11 27 18 35 20 35 8 0 -4 -25 -21 -55 -37 -30 -17 -55 -33
-55 -37 0 -5 -7 -8 -15 -8 -8 0 -15 -6 -15 -12 -1 -14 -20 -29 -102 -83 -27
-18 -50 -37 -51 -41 -1 -5 -6 -8 -11 -6 -15 5 -57 -28 -50 -40 4 -7 3 -8 -5
-4 -6 4 -45 -17 -90 -48 -44 -31 -84 -56 -89 -56 -5 0 -12 -6 -15 -12 -2 -7
-31 -31 -63 -53 -33 -21 -61 -40 -63 -42 -2 -2 -2 -6 1 -9 8 -8 49 15 69 38 9
10 24 18 33 18 9 0 19 7 22 15 4 8 12 15 20 15 8 0 14 4 14 8 0 5 18 17 40 27
22 10 40 21 40 24 0 12 90 62 100 56 5 -3 8 0 5 7 -5 14 101 84 123 82 9 -1
10 2 2 11 -8 9 -6 14 6 19 23 9 27 8 21 -8 -4 -10 -1 -13 8 -9 8 3 12 10 8 17
-3 6 4 2 17 -9 13 -11 20 -15 17 -8 -10 16 10 63 25 63 9 0 8 -3 -2 -10 -13
-8 -13 -10 2 -10 9 0 23 6 30 13 7 6 30 13 52 13 21 1 41 6 45 11 3 6 31 25
61 43 30 17 82 49 115 71 90 57 165 91 165 72 0 -9 -101 -68 -112 -65 -4 1 -5
-5 -2 -13 4 -10 0 -15 -10 -15 -26 0 -147 -80 -139 -92 3 -7 1 -8 -6 -4 -12 8
-101 -43 -101 -57 0 -5 4 -6 8 -3 4 2 14 1 22 -4 9 -6 23 -2 41 11 15 10 32
19 38 19 6 0 11 4 11 9 0 5 11 12 25 15 14 4 25 10 25 15 0 5 15 15 33 22 17
7 38 19 45 26 7 7 21 13 30 13 13 0 11 -5 -8 -20 -14 -11 -35 -23 -47 -26 -13
-3 -23 -10 -23 -15 0 -5 -4 -9 -9 -9 -6 0 -30 -13 -54 -30 -25 -17 -51 -30
-58 -30 -11 0 -11 -2 -1 -9 10 -6 10 -10 -2 -20 -8 -7 -21 -9 -27 -5 -8 5 -9
3 -4 -5 4 -8 17 -10 31 -7 17 5 26 2 30 -9 4 -10 13 -13 25 -10 14 5 19 1 20
-12 0 -10 3 -13 6 -5 2 6 13 12 23 12 10 0 20 7 24 15 6 17 26 21 26 5 0 -6
-9 -19 -19 -29 -19 -19 -19 -19 15 -14 22 4 34 2 34 -6 0 -6 -3 -10 -7 -10
-19 3 -36 -2 -30 -8 14 -13 60 -11 83 4 13 8 24 12 24 9 0 -6 16 5 43 30 6 6
19 9 29 6 13 -3 17 0 13 11 -4 8 1 17 10 21 11 4 14 2 9 -6 -5 -8 -2 -9 10 -5
10 4 22 7 27 7 6 0 7 5 3 12 -4 6 -3 9 2 5 5 -3 32 8 59 24 28 16 58 32 68 35
9 4 17 10 17 14 0 5 16 14 35 20 19 6 33 15 31 19 -8 13 8 27 54 48 59 27 90
36 90 26 0 -13 -64 -45 -94 -46 -14 -1 -28 -8 -31 -15 -3 -7 0 -10 5 -7 16 10
12 -11 -5 -25 -8 -6 -18 -9 -24 -6 -5 3 -12 -1 -15 -10 -4 -9 -9 -14 -12 -11
-4 3 -11 1 -18 -4 -19 -16 -128 -79 -137 -79 -5 0 -9 -4 -9 -10 0 -5 -7 -10
-15 -10 -25 0 -96 -50 -89 -62 4 -6 3 -8 -3 -5 -17 11 -75 -23 -69 -40 3 -8 2
-12 -3 -8 -5 3 -20 1 -33 -4 -19 -7 -17 -9 17 -8 22 0 46 5 53 10 6 5 12 5 12
1 0 -5 -9 -15 -20 -22 -11 -7 -20 -19 -20 -27 0 -8 -6 -15 -14 -15 -8 0 -16
-4 -18 -8 -4 -12 -87 -66 -125 -82 -17 -8 -29 -18 -27 -22 3 -4 -2 -8 -11 -8
-9 0 -23 -7 -32 -15 -16 -16 -38 -11 -27 7 4 6 1 14 -6 18 -9 5 -34 -6 -71
-31 -32 -21 -62 -39 -67 -39 -4 0 -21 -13 -37 -30 -16 -17 -33 -30 -38 -30
-14 0 -57 -37 -50 -43 3 -4 -3 -10 -13 -14 -10 -3 -21 -9 -24 -13 -3 -3 -18
-16 -35 -29 -18 -15 -22 -21 -10 -16 11 4 31 8 45 9 21 1 25 -3 23 -26 -1 -21
2 -26 15 -21 9 3 22 9 27 13 16 12 125 70 131 70 4 0 4 -7 0 -15 -8 -22 7 -18
24 5 8 11 22 20 32 20 10 0 18 4 18 8 0 11 66 42 89 42 10 0 25 -7 32 -16 12
-15 11 -18 -5 -28 -10 -6 -28 -19 -40 -28 -20 -17 -20 -17 12 -2 26 13 39 14
58 6 15 -7 25 -8 29 -2 4 6 12 10 18 10 7 -1 2 -9 -10 -19 -13 -11 -23 -24
-23 -30 0 -6 -7 -11 -15 -11 -8 0 -15 -4 -15 -10 0 -5 -6 -10 -13 -10 -7 0
-19 -9 -27 -20 -8 -11 -19 -20 -25 -20 -6 0 -20 -8 -31 -19 -11 -10 -30 -24
-42 -30 -13 -7 -20 -16 -17 -21 5 -8 46 -2 55 9 8 9 80 49 133 73 26 12 47 27
47 34 0 14 38 26 45 14 3 -5 -3 -13 -12 -19 -10 -6 -15 -11 -11 -11 13 0 79
42 74 48 -3 3 -12 -1 -21 -8 -9 -7 -18 -10 -22 -7 -8 9 16 37 32 37 7 0 18 7
25 15 10 12 16 13 24 5 8 -8 7 -13 -4 -20 -8 -5 -11 -10 -7 -10 4 0 25 11 45
25 20 14 41 25 46 25 4 0 24 14 43 30 18 17 42 30 53 30 10 0 22 5 25 11 4 6
14 8 22 5 8 -4 11 -2 7 5 -4 7 1 9 17 5 13 -3 18 -3 12 0 -19 9 -15 20 7 21
12 1 18 -3 14 -8 -3 -6 3 -5 14 2 11 7 18 19 15 26 -3 7 1 13 10 13 8 0 14 -9
13 -22 -1 -25 -18 -36 -198 -132 -40 -21 -75 -42 -78 -46 -3 -3 -41 -27 -85
-51 -115 -65 -128 -73 -143 -86 -7 -7 -20 -13 -28 -13 -8 0 -17 -6 -20 -13 -2
-7 -27 -27 -54 -43 -27 -16 -50 -35 -50 -42 0 -7 -12 -17 -27 -23 -16 -6 -42
-21 -60 -35 -17 -13 -36 -24 -41 -24 -5 0 -17 -9 -27 -20 -10 -11 -22 -17 -28
-13 -6 3 -7 1 -3 -6 8 -13 145 55 153 77 3 6 15 12 28 12 12 0 28 7 35 15 7 8
19 15 26 15 8 0 14 4 14 8 0 5 11 14 25 20 32 15 35 15 35 2 0 -5 -6 -10 -14
-10 -8 0 -16 -4 -18 -8 -1 -5 -24 -23 -50 -41 -27 -17 -48 -39 -48 -48 0 -11
3 -13 13 -5 23 19 87 41 87 31 0 -6 -9 -13 -20 -16 -11 -3 -20 -9 -20 -14 0
-4 -35 -28 -77 -52 -110 -63 -237 -140 -243 -147 -3 -4 -12 -10 -20 -13 -13
-5 -13 -6 1 -6 9 -1 33 10 53 24 20 14 41 25 46 25 6 0 10 5 10 11 0 6 7 9 15
5 9 -3 15 0 15 8 0 7 13 19 30 27 16 8 73 42 127 75 115 72 163 97 170 90 9
-9 -8 -26 -25 -26 -13 0 -14 -2 -4 -8 9 -6 -26 -30 -105 -76 -65 -36 -129 -76
-143 -87 l-25 -20 25 12 c14 7 31 12 38 10 8 -1 29 9 47 23 19 14 37 26 40 26
4 0 19 8 33 19 55 38 161 91 166 83 3 -5 -6 -15 -19 -22 -14 -7 -25 -17 -25
-22 0 -5 14 1 30 14 17 12 30 25 30 29 0 7 40 22 54 20 4 -1 14 3 22 10 7 6
18 8 24 4 5 -3 13 0 16 9 8 21 34 28 51 14 11 -9 13 -8 11 3 -3 16 24 15 60
-3 24 -13 31 -34 7 -24 -9 3 -15 0 -15 -8 0 -15 -47 -39 -61 -31 -8 6 -13 -7
-10 -31 0 -5 -32 -29 -73 -52 -40 -23 -79 -49 -86 -57 -7 -8 -18 -15 -24 -15
-7 0 -21 -7 -32 -15 -18 -14 -17 -14 9 -5 39 14 33 -3 -8 -23 -19 -9 -35 -22
-35 -28 0 -8 6 -7 17 3 10 8 37 24 60 34 39 17 63 41 28 28 -8 -4 -15 -1 -15
5 0 11 3 12 50 16 14 2 51 15 83 29 31 14 60 27 63 28 4 2 22 18 42 36 45 43
151 112 171 112 9 0 -52 -49 -62 -50 -4 0 -13 -5 -20 -10 -7 -6 -31 -24 -55
-40 -23 -17 -42 -35 -42 -42 0 -6 7 -4 18 5 10 10 22 17 26 17 4 0 33 17 64
37 31 21 62 38 67 38 6 0 18 8 28 18 10 10 25 16 33 13 8 -3 13 -2 10 3 -8 12
42 44 55 36 5 -4 8 -1 7 6 -2 6 3 14 11 17 9 3 11 0 6 -8 -6 -9 -4 -11 4 -6 7
5 10 10 7 13 -9 9 37 44 50 39 7 -3 20 4 30 15 9 10 22 19 27 19 6 0 25 11 43
25 18 14 41 25 51 24 10 0 13 -3 5 -6 -6 -2 -10 -9 -7 -13 3 -5 -4 -14 -15
-20 -11 -6 -20 -9 -20 -6 0 3 -12 -6 -26 -19 -15 -14 -33 -25 -40 -25 -7 0
-18 -9 -24 -20 -6 -11 -15 -18 -21 -15 -5 4 -9 1 -9 -5 0 -6 -5 -8 -11 -5 -6
4 -13 -2 -16 -13 -5 -22 -33 -39 -33 -21 0 6 -6 5 -15 -3 -29 -26 -41 -34 -82
-58 -24 -13 -43 -27 -43 -32 0 -4 -6 -8 -14 -8 -7 0 -20 -8 -27 -17 -10 -13
-3 -11 26 6 94 55 141 78 153 74 7 -3 11 1 10 7 -2 7 31 31 73 54 42 22 83 46
90 52 18 14 138 84 145 84 3 0 2 -6 -3 -12 -4 -8 3 -7 17 3 93 60 230 123 230
105 0 -2 -35 -20 -77 -41 -113 -56 -174 -95 -166 -107 3 -7 1 -8 -5 -4 -16 10
-54 -12 -46 -26 5 -7 2 -8 -5 -4 -9 6 -98 -38 -139 -70 -2 -1 2 -11 9 -22 15
-24 24 -21 141 46 47 27 75 49 71 56 -3 6 -3 8 2 4 11 -10 85 30 81 45 -1 6
-1 9 1 5 3 -5 9 -8 14 -8 6 0 7 5 3 12 -4 7 -3 8 4 4 6 -4 29 5 51 19 23 14
43 25 46 25 3 0 28 16 56 36 28 19 53 33 57 30 7 -8 13 -3 -113 -81 -100 -62
-159 -103 -111 -77 14 7 23 6 33 -4 12 -12 20 -11 53 6 46 23 50 24 50 8 0 -6
-3 -9 -6 -5 -3 3 -11 2 -18 -4 -24 -20 -87 -59 -96 -59 -6 0 -10 -4 -10 -9 0
-5 -9 -13 -21 -16 -15 -5 -18 -10 -10 -18 17 -17 13 -27 -11 -37 -16 -6 -18
-9 -6 -9 18 -1 136 56 156 76 7 7 19 13 26 13 8 0 19 7 26 15 14 16 30 20 30
6 0 -4 -27 -25 -60 -45 -33 -20 -74 -49 -91 -64 -27 -22 -265 -162 -276 -162
-3 0 -24 -14 -48 -30 -24 -16 -48 -30 -54 -30 -5 0 -13 -5 -16 -10 -4 -7 2 -9
19 -4 20 5 26 2 26 -10 0 -9 5 -16 10 -16 22 0 7 -16 -33 -35 -40 -18 -41 -19
-17 -25 17 -4 21 -8 12 -14 -6 -4 -16 -4 -22 -1 -6 3 -7 -1 -4 -9 5 -12 11
-13 24 -6 42 23 42 -7 0 -35 -16 -11 -30 -23 -30 -27 0 -5 -6 -8 -14 -8 -8 0
-26 -16 -42 -35 -15 -19 -37 -38 -48 -41 -12 -4 -28 -12 -36 -19 -8 -7 -34
-19 -58 -26 -23 -7 -47 -18 -53 -26 -6 -7 -16 -13 -21 -13 -5 0 -30 -14 -56
-32 -58 -39 -56 -37 -51 -43 3 -2 31 9 63 25 65 33 91 38 83 15 -5 -11 0 -11
27 3 19 9 32 20 29 24 -2 4 2 5 10 3 7 -3 30 6 51 20 20 14 41 25 46 25 6 0
10 5 10 10 0 6 6 10 14 10 8 0 16 5 18 12 2 6 31 12 69 14 35 2 66 4 69 5 3 1
8 1 13 0 4 0 7 4 7 9 0 6 8 10 19 10 10 0 24 7 31 15 7 8 17 15 23 15 6 0 7
-3 4 -7 -4 -3 1 -12 11 -20 16 -12 14 -16 -23 -49 l-40 -36 40 26 c22 15 46
29 53 32 20 10 27 -3 12 -21 -8 -9 20 6 60 34 69 48 100 61 100 44 0 -10 -52
-51 -103 -82 -20 -13 -34 -27 -31 -33 4 -7 2 -8 -4 -4 -6 4 -20 1 -32 -6 -49
-31 3 -34 60 -4 44 24 94 59 98 69 7 14 24 7 18 -8 -7 -20 18 -20 38 0 8 8 21
15 28 15 8 0 24 9 36 20 12 11 24 20 28 20 7 0 105 60 114 70 3 3 24 14 48 24
23 11 42 23 42 27 0 4 10 11 22 15 12 3 28 13 36 21 8 8 17 11 21 8 3 -4 -3
-13 -14 -20 -11 -8 -25 -18 -31 -23 -6 -5 -20 -13 -32 -16 -12 -4 -22 -11 -22
-15 0 -4 -10 -13 -23 -18 -13 -6 -50 -28 -83 -49 -32 -21 -62 -37 -66 -36 -5
1 -8 -2 -8 -7 0 -5 -13 -14 -28 -20 -15 -6 -45 -27 -66 -46 -22 -19 -49 -38
-60 -41 -12 -4 -28 -14 -36 -24 -8 -9 -35 -31 -60 -48 -52 -37 -121 -95 -80
-68 14 9 48 30 77 47 28 16 57 37 63 44 14 17 40 20 40 6 0 -5 9 -7 20 -4 11
3 20 0 20 -6 0 -8 8 -6 23 3 12 8 26 16 32 18 5 2 9 6 8 11 -2 4 2 7 7 7 6 0
10 -3 10 -7 0 -14 54 -12 70 2 19 16 77 46 87 44 4 -1 15 -1 23 0 13 1 13 2 0
11 -11 7 -7 10 17 10 17 0 35 5 38 10 3 6 1 10 -5 10 -41 0 75 52 131 59 5 0
7 6 3 13 -4 6 -3 8 4 5 5 -4 41 9 79 30 37 20 79 42 93 50 14 7 30 13 37 13 6
0 13 6 16 13 2 6 8 9 12 5 4 -4 2 -16 -6 -25 -12 -16 -12 -17 2 -6 9 7 18 11
21 8 2 -3 4 5 4 18 -1 13 5 22 14 22 8 0 20 6 25 13 6 7 33 15 60 17 32 3 54
10 62 21 7 10 13 14 13 10 0 -4 25 6 56 24 45 25 59 29 65 18 7 -10 9 -9 9 5
0 9 5 18 10 18 6 1 15 3 20 4 6 1 14 3 20 4 5 0 7 8 4 16 -5 11 -2 13 12 8 12
-4 15 -3 10 5 -5 8 -2 10 8 6 17 -7 49 19 38 31 -4 5 -1 5 5 1 12 -6 107 39
141 66 14 12 27 4 18 -11 -4 -5 -32 -22 -62 -38 -31 -15 -67 -38 -81 -51 -13
-12 -29 -22 -36 -22 -19 -1 -54 -30 -36 -31 8 0 -8 -11 -36 -25 -67 -33 -88
-46 -109 -67 -10 -9 -23 -17 -30 -17 -8 0 -20 -7 -27 -16 -8 -10 11 -4 50 15
35 18 66 30 69 27 7 -8 11 -6 -98 -61 -52 -26 -105 -57 -117 -68 -13 -11 -26
-17 -30 -13 -4 4 -1 11 7 16 13 8 13 10 -1 10 -9 0 -22 -7 -29 -15 -10 -12
-10 -15 0 -15 20 0 -4 -22 -47 -45 -44 -23 -97 -61 -70 -52 9 4 17 2 17 -4 0
-6 -9 -9 -19 -6 -24 6 -75 -24 -122 -72 -20 -20 -65 -54 -100 -75 -165 -100
-497 -326 -503 -342 -6 -17 -6 -17 11 -2 10 9 32 20 48 24 17 4 33 12 38 18 5
8 10 7 16 -3 7 -11 10 -9 16 8 6 20 10 23 38 25 6 1 19 9 27 20 14 16 17 17
29 2 12 -14 11 -16 -8 -16 -11 0 -21 -4 -21 -9 0 -5 -16 -18 -35 -30 -22 -13
-35 -28 -35 -41 0 -11 -5 -20 -11 -20 -5 0 -7 -4 -4 -10 3 -5 17 -10 31 -10
13 0 24 -5 24 -10 0 -6 11 -3 25 6 13 8 30 12 36 8 7 -4 9 -3 6 3 -7 11 54 51
178 118 39 21 87 49 107 62 21 12 42 23 48 23 5 0 10 5 10 10 0 6 5 10 10 10
23 0 7 -28 -26 -43 -21 -11 -32 -22 -28 -29 4 -7 3 -8 -4 -4 -6 4 -33 -4 -59
-18 -36 -19 -42 -25 -25 -26 12 0 22 -5 22 -12 0 -6 10 -2 23 10 13 12 28 22
34 22 6 0 16 7 23 15 7 9 19 14 27 11 7 -3 43 10 79 29 37 19 73 35 80 35 8 0
14 7 14 15 0 9 6 12 15 9 20 -8 10 -21 -28 -39 -18 -8 -59 -30 -92 -50 -33
-19 -70 -40 -82 -45 -32 -13 -29 -22 3 -10 33 13 34 13 34 -6 0 -8 -4 -12 -10
-9 -6 3 -10 1 -10 -5 0 -7 -7 -10 -14 -7 -14 6 -45 -5 -110 -39 -25 -13 -28
-13 -22 1 3 8 3 15 0 15 -2 0 -9 -11 -14 -24 -5 -14 -28 -34 -57 -47 -26 -13
-54 -30 -61 -37 -8 -6 -22 -17 -33 -22 -28 -15 -23 -30 5 -17 13 7 23 14 21
18 -4 5 45 30 129 68 5 2 6 -4 2 -14 -5 -15 -4 -16 9 -5 8 7 13 15 11 19 -7
10 12 37 20 29 3 -4 -2 -22 -13 -40 -16 -28 -25 -33 -51 -31 -22 2 -30 -1 -27
-10 3 -6 -8 -21 -25 -32 -40 -27 -39 -43 3 -37 17 3 26 7 20 9 -7 3 17 20 54
39 76 39 80 40 63 19 -11 -13 -9 -14 16 0 16 8 37 12 47 9 9 -3 17 -1 17 5 0
6 5 11 11 11 6 0 9 -7 6 -15 -4 -8 -1 -17 4 -21 10 -6 -4 -17 -61 -46 -14 -7
-31 -18 -38 -25 -13 -12 -27 -17 -44 -14 -5 0 -8 -4 -8 -9 0 -6 -25 -22 -55
-36 -30 -15 -55 -31 -55 -36 0 -5 19 1 43 15 23 13 71 40 105 61 35 20 68 36
73 36 5 0 9 4 9 9 0 5 8 11 18 14 21 8 97 50 116 66 9 8 16 8 20 2 4 -6 -9
-21 -28 -33 -21 -14 -34 -29 -31 -38 4 -15 -105 -90 -153 -105 -12 -3 -22 -10
-22 -15 0 -5 -9 -12 -21 -15 -11 -4 -18 -9 -16 -12 7 -6 60 21 137 72 63 41
130 66 130 48 0 -5 -12 -14 -27 -21 -16 -6 -48 -24 -73 -38 -36 -21 -39 -25
-17 -20 21 5 28 3 24 -6 -2 -7 -11 -12 -20 -12 -8 1 -13 -4 -11 -10 4 -10
-131 -108 -222 -161 -18 -11 -34 -24 -34 -29 0 -5 7 -3 15 4 8 6 18 9 23 7 11
-8 37 10 37 25 0 7 9 13 20 14 30 2 65 23 65 39 0 8 5 15 10 15 6 0 10 -5 10
-10 0 -7 7 -7 21 0 11 7 18 17 16 25 -4 8 1 11 12 8 10 -2 23 3 30 11 8 9 19
16 26 16 7 0 23 8 36 18 38 30 119 72 119 63 0 -5 -31 -28 -70 -52 -38 -24
-70 -47 -70 -51 0 -8 36 11 148 75 67 39 82 44 82 27 0 -5 -5 -10 -10 -10 -6
0 -36 -16 -66 -35 -30 -19 -60 -35 -67 -35 -8 0 -7 -4 3 -10 13 -9 12 -13 -9
-30 -13 -11 -18 -20 -12 -20 21 0 11 -18 -21 -39 -18 -12 -46 -33 -63 -47 -26
-23 -27 -24 -5 -13 14 7 45 26 70 43 40 28 93 56 105 56 18 0 -3 -23 -47 -51
-59 -38 -62 -40 -147 -89 -34 -19 -61 -38 -61 -41 0 -4 -20 -19 -44 -33 -25
-15 -48 -31 -51 -37 -4 -5 20 7 52 27 114 73 373 244 390 259 60 49 166 126
169 123 2 -2 -10 -17 -27 -33 -16 -17 -37 -38 -47 -47 -9 -10 -21 -18 -27 -18
-5 0 -26 -14 -45 -31 -19 -17 -46 -40 -60 -50 -21 -17 -17 -16 20 3 25 13 47
25 50 28 3 3 15 11 28 18 24 13 29 4 10 -18 -11 -12 -10 -12 5 -1 9 8 20 11
24 7 10 -9 -3 -18 -31 -20 -13 0 -23 -2 -21 -4 2 -2 -3 -15 -10 -29 -12 -23
-138 -102 -217 -136 -16 -6 -28 -14 -28 -18 0 -13 -122 -91 -135 -85 -9 3 -12
0 -8 -10 4 -12 11 -11 42 8 48 29 123 80 139 96 7 6 19 12 26 12 7 0 21 9 31
20 10 12 24 19 31 16 7 -3 14 -2 16 2 5 11 69 44 75 39 2 -3 -14 -18 -36 -33
-46 -30 -49 -46 -4 -18 39 25 67 54 51 54 -6 0 -3 7 8 15 26 19 40 19 23 -1
-12 -14 -11 -16 6 -13 12 3 20 12 20 23 0 11 7 22 15 24 13 5 13 3 1 -11 -19
-24 2 -21 24 3 10 11 27 22 39 26 11 3 29 13 39 22 9 8 17 11 17 6 0 -13 -27
-35 -73 -59 -20 -11 -37 -23 -37 -27 0 -5 -7 -8 -15 -8 -8 0 -15 -4 -15 -10 0
-5 -7 -10 -15 -10 -8 0 -15 -4 -15 -10 0 -5 -7 -10 -15 -10 -8 0 -15 -4 -15
-10 0 -5 -5 -10 -11 -10 -11 0 -129 -78 -129 -85 0 -3 29 13 64 34 36 23 72
38 83 35 15 -4 126 61 179 105 32 26 91 44 67 20 -6 -6 -20 -16 -31 -23 -94
-54 -220 -137 -250 -164 -21 -19 -26 -27 -13 -18 17 11 29 12 42 5 14 -7 28
-2 61 20 34 23 44 26 46 15 4 -16 -15 -44 -30 -44 -5 0 -16 -7 -24 -15 -26
-25 -9 -17 73 35 43 28 95 58 115 68 36 16 50 32 28 32 -21 0 -8 36 18 48 47
23 52 24 52 13 0 -6 -7 -11 -15 -11 -23 0 -59 -36 -45 -45 6 -4 17 -2 24 4 7
6 16 8 19 4 12 -11 8 -23 -8 -23 -8 0 -15 -7 -15 -15 0 -8 -6 -15 -14 -15 -8
0 -14 -6 -13 -12 1 -31 -4 -49 -11 -44 -5 3 -16 -4 -25 -15 -16 -18 -16 -19 8
-19 29 0 31 -9 8 -36 -10 -10 -19 -27 -20 -36 -2 -10 -4 -25 -5 -34 -2 -9 3
-19 10 -21 6 -3 12 2 12 11 0 19 16 21 23 4 3 -8 6 -6 6 4 1 10 10 22 21 28
11 6 18 15 15 20 -3 6 1 7 9 4 24 -9 19 -30 -11 -53 l-28 -20 31 8 c21 6 36 4
49 -5 18 -13 18 -14 -5 -34 l-23 -20 296 0 297 0 0 1880 0 1880 -2261 0
c-1532 0 -2258 -3 -2254 -10 4 -6 -7 -16 -24 -23 -17 -7 -28 -16 -24 -20 6 -6
-1 -8 -47 -11 -8 -1 -15 -7 -15 -14 0 -14 -23 -32 -41 -32 -17 0 -27 32 -14
40 8 5 6 9 -4 13 -22 9 -20 37 2 37 9 0 24 4 32 9 8 6 -147 10 -406 10 -240 1
-424 -3 -429 -8z m435 -41 c0 -5 -5 -10 -11 -10 -5 0 -7 5 -4 10 3 6 8 10 11
10 2 0 4 -4 4 -10z m-30 -22 c0 -13 -23 -5 -28 10 -2 7 2 10 12 6 9 -3 16 -11
16 -16z m-445 2 c-3 -5 -10 -10 -16 -10 -5 0 -9 5 -9 10 0 6 7 10 16 10 8 0
12 -4 9 -10z m367 -15 c0 -13 -29 -31 -38 -23 -7 8 18 38 29 35 5 -1 9 -7 9
-12z m-170 -37 c-6 -6 -15 -8 -19 -4 -4 4 -1 11 7 16 19 12 27 3 12 -12z m785
6 c-3 -3 -12 -4 -19 -1 -8 3 -5 6 6 6 11 1 17 -2 13 -5z m-1077 -18 c0 -3 -4
-8 -10 -11 -5 -3 -10 -1 -10 4 0 6 5 11 10 11 6 0 10 -2 10 -4z m260 -6 c0 -5
-5 -10 -11 -10 -5 0 -7 5 -4 10 3 6 8 10 11 10 2 0 4 -4 4 -10z m226 -12 c-4
13 -3 22 3 22 13 0 23 -33 15 -54 -7 -17 -34 -22 -34 -6 0 6 -7 10 -15 10 -8
0 -15 8 -15 18 0 31 14 35 34 10 l19 -23 -7 23z m-536 -23 c-13 -14 -28 -25
-34 -25 -6 1 3 12 19 25 39 32 45 32 15 0z m720 21 c0 -3 -4 -8 -10 -11 -5 -3
-10 -1 -10 4 0 6 5 11 10 11 6 0 10 -2 10 -4z m340 -14 c0 -5 -9 -17 -20 -28
-11 -10 -29 -27 -39 -38 -19 -18 -41 -15 -41 5 0 6 4 8 8 5 5 -3 16 4 25 15 9
10 24 19 32 19 8 0 15 7 15 15 0 8 5 15 10 15 6 0 10 -4 10 -8z m-479 -21
c-14 -13 -18 -20 -10 -23 16 -5 -11 -34 -74 -77 -55 -37 -61 -33 -14 9 17 17
24 27 15 24 -10 -3 -18 -10 -18 -15 0 -5 -10 -13 -22 -18 -13 -5 -23 -16 -23
-26 0 -10 -7 -21 -15 -23 -13 -5 -13 -3 0 13 12 15 8 15 -17 -4 -18 -12 -33
-25 -33 -28 0 -3 7 0 15 7 9 7 19 9 23 5 4 -4 1 -10 -6 -12 -7 -3 -25 -15 -40
-27 -29 -24 -72 -40 -72 -26 0 5 15 20 33 33 17 14 46 37 62 51 90 76 190 137
143 87 -11 -11 -9 -11 10 -2 13 7 21 18 19 24 -5 14 21 47 36 47 6 0 0 -9 -12
-19z m209 5 c0 -32 -11 -42 -41 -38 -34 5 -50 29 -28 43 23 14 69 11 69 -5z
m1630 -15 c0 -12 -20 -25 -27 -18 -7 7 6 27 18 27 5 0 9 -4 9 -9z m-2145 -11
c3 -5 -1 -10 -10 -10 -9 0 -13 5 -10 10 3 6 8 10 10 10 2 0 7 -4 10 -10z m45
0 c0 -5 -4 -10 -10 -10 -5 0 -10 5 -10 10 0 6 5 10 10 10 6 0 10 -4 10 -10z
m2029 -50 c-19 -17 -47 -38 -64 -47 -16 -9 -38 -25 -48 -36 -12 -15 -21 -17
-28 -10 -8 8 9 23 55 53 36 24 66 46 66 50 0 8 43 29 49 24 2 -2 -11 -17 -30
-34z m-1402 -12 c-14 -21 -31 -19 -35 7 -3 11 0 15 7 11 6 -4 14 0 17 9 5 13
9 14 14 4 5 -7 3 -20 -3 -31z m64 -10 c-17 -11 -31 -23 -31 -27 0 -4 -12 -13
-27 -20 -22 -10 -24 -14 -12 -23 11 -8 11 -9 -3 -4 -20 6 -118 -68 -118 -90 0
-8 -7 -14 -15 -14 -8 0 -22 -11 -31 -25 -9 -14 -23 -25 -30 -25 -8 0 -14 -4
-14 -8 0 -5 -16 -16 -36 -25 -21 -11 -32 -22 -28 -29 4 -6 3 -8 -4 -4 -6 3
-17 0 -25 -8 -10 -10 -17 -12 -25 -4 -7 7 -10 5 -9 -8 1 -10 -8 -23 -21 -30
-13 -6 -23 -15 -22 -20 3 -15 -17 -15 -29 0 -16 19 -6 37 16 29 10 -4 14 -2 9
5 -3 6 -2 14 4 17 8 5 7 11 -1 21 -11 14 -10 15 11 18 5 0 17 11 25 24 9 12
21 22 27 22 7 0 3 -7 -8 -15 -17 -14 -16 -14 13 0 23 11 31 20 26 32 -5 12 -2
15 10 10 19 -7 82 19 109 45 16 16 16 17 0 21 -14 4 -13 6 6 12 12 4 22 11 22
15 0 4 12 15 26 25 22 14 28 15 36 4 8 -11 9 -10 4 3 -3 12 5 24 26 39 l30 22
-7 -24 c-3 -13 -3 -19 2 -13 4 6 16 14 27 17 11 4 16 13 12 22 -3 8 -1 15 4
15 6 0 10 -6 10 -12 0 -8 7 -5 15 6 8 11 15 16 15 10 0 -5 5 -1 11 9 6 9 15
14 21 11 6 -4 -3 -15 -21 -26z m1609 -27 c0 -5 -7 -11 -14 -14 -10 -4 -13 -1
-9 9 6 15 23 19 23 5z m-2061 -28 c-12 -15 -12 -16 6 -9 25 10 65 19 46 10 -8
-4 -26 -20 -39 -36 -15 -18 -31 -27 -40 -23 -10 4 -13 0 -9 -14 5 -20 -21 -49
-65 -71 -12 -7 -33 -24 -45 -37 -14 -16 -28 -23 -38 -19 -9 3 -29 -1 -46 -9
-26 -14 -43 -5 -19 10 6 4 8 10 5 15 -3 4 20 26 50 49 32 24 53 47 49 53 -4 7
-3 8 4 4 19 -11 70 33 65 55 -4 15 0 19 21 19 14 0 26 5 26 10 0 6 10 10 21
10 19 0 20 -2 8 -17z m-652 -19 c-3 -3 -12 -4 -19 -1 -8 3 -5 6 6 6 11 1 17
-2 13 -5z m3246 -40 c-22 -16 -33 -18 -33 -4 0 6 7 10 15 10 8 0 15 5 15 11 0
5 5 7 11 4 6 -5 4 -12 -8 -21z m-2243 6 c0 -5 -4 -10 -10 -10 -5 0 -10 5 -10
10 0 6 5 10 10 10 6 0 10 -4 10 -10z m-200 -70 c-14 -11 -29 -20 -35 -20 -5 0
1 9 15 20 14 11 30 20 35 20 6 0 -1 -9 -15 -20z m690 2 c0 -13 -12 -22 -22
-16 -10 6 -1 24 13 24 5 0 9 -4 9 -8z m-353 -39 c1 -19 -1 -22 -8 -12 -7 11
-9 11 -9 -3 0 -23 -16 -23 -24 -2 -4 10 1 22 11 30 25 19 28 18 30 -13z m323
7 c0 -5 -4 -10 -8 -10 -5 0 -26 -16 -48 -35 -21 -19 -43 -35 -47 -35 -5 0 -5
-5 -1 -12 5 -8 2 -9 -11 -4 -13 4 -37 -5 -77 -30 -33 -20 -62 -34 -64 -31 -8
7 132 104 184 128 23 11 42 24 42 29 0 6 7 10 15 10 8 0 15 -4 15 -10z m627
-17 c-9 -9 -20 -14 -24 -10 -3 4 2 14 13 21 25 19 33 10 11 -11z m-1900 -22
c-1 -13 -8 -26 -16 -29 -8 -3 -11 0 -7 6 4 7 2 20 -4 31 -8 17 -7 20 9 18 14
-1 19 -8 18 -26z m-80 -6 c0 -8 -4 -12 -9 -9 -5 3 -6 10 -3 15 9 13 12 11 12
-6z m1929 -7 c-10 -6 -20 -7 -24 -3 -9 8 20 25 31 18 5 -3 2 -10 -7 -15z m374
-8 c0 -5 -4 -10 -10 -10 -5 0 -10 5 -10 10 0 6 5 10 10 10 6 0 10 -4 10 -10z
m-410 -10 c0 -6 -11 -15 -25 -20 -15 -6 -25 -17 -25 -30 0 -11 -6 -20 -14 -20
-8 0 -13 8 -11 18 2 9 4 20 4 25 1 4 7 7 15 7 7 0 19 7 26 15 14 17 30 20 30
5z m370 -19 c0 -5 -16 -18 -35 -30 -19 -11 -35 -17 -35 -12 0 11 30 36 30 25
0 -5 5 -1 11 9 11 18 29 23 29 8z m-708 -47 c-17 -12 -20 -19 -12 -29 15 -18
-7 -32 -23 -15 -9 10 -9 11 1 6 6 -4 12 -2 12 4 0 7 -6 10 -12 7 -7 -2 -11
-14 -10 -27 2 -12 -2 -27 -10 -31 -23 -15 -44 -10 -45 11 -1 11 2 20 6 20 5 0
26 16 47 35 21 19 45 35 53 35 11 0 8 -5 -7 -16z m63 6 c3 -5 2 -10 -4 -10 -5
0 -13 5 -16 10 -3 6 -2 10 4 10 5 0 13 -4 16 -10z m-1115 -31 c0 -5 -7 -9 -15
-9 -15 0 -20 12 -9 23 8 8 24 -1 24 -14z m1660 1 c-11 -11 -22 -20 -25 -20 -7
0 -97 -63 -148 -103 -29 -22 -41 -27 -50 -18 -8 8 -7 11 5 11 9 0 33 14 54 31
118 93 221 156 164 99z m-580 6 c0 -3 -4 -8 -10 -11 -5 -3 -10 -1 -10 4 0 6 5
11 10 11 6 0 10 -2 10 -4z m-677 -20 c4 -10 1 -13 -9 -9 -15 6 -19 23 -5 23 5
0 11 -7 14 -14z m133 -23 c-11 -11 -17 4 -9 23 7 18 8 18 11 1 2 -10 1 -21 -2
-24z m-26 -3 c0 -13 -9 -22 -25 -26 -38 -10 -48 -1 -25 24 26 27 50 29 50 2z
m-75 -40 c3 -5 1 -10 -4 -10 -6 0 -11 5 -11 10 0 6 2 10 4 10 3 0 8 -4 11 -10z
m-35 -9 c0 -5 3 -18 7 -28 6 -15 5 -16 -9 -5 -14 11 -19 10 -31 -9 -17 -23
-47 -20 -47 5 0 16 27 29 41 20 5 -3 12 2 15 10 7 17 24 22 24 7z m1440 -11
c0 -6 -16 -18 -35 -27 -25 -12 -32 -19 -23 -26 10 -6 9 -7 -2 -4 -29 8 -21 32
17 49 46 21 43 20 43 8z m-1275 -20 c-3 -5 -12 -10 -18 -10 -7 0 -6 4 3 10 19
12 23 12 15 0z m48 -17 c-5 -12 -3 -14 7 -8 8 5 11 4 6 -3 -7 -12 -36 -5 -36
8 0 7 7 12 27 19 1 1 -1 -6 -4 -16z m2338 -36 c-13 -13 -26 -3 -16 12 3 6 11
8 17 5 6 -4 6 -10 -1 -17z m-2371 3 c-13 -8 -13 -11 -1 -22 10 -10 12 -10 7 0
-5 8 1 12 18 12 14 0 26 -4 26 -10 0 -5 -7 -10 -15 -10 -8 0 -15 -4 -15 -10 0
-16 -30 -12 -36 5 -8 20 2 45 18 45 9 0 9 -3 -2 -10z m1550 0 c0 -5 -4 -10
-10 -10 -5 0 -10 5 -10 10 0 6 5 10 10 10 6 0 10 -4 10 -10z m-1300 -20 c0 -5
-4 -10 -10 -10 -5 0 -10 5 -10 10 0 6 5 10 10 10 6 0 10 -4 10 -10z m1585 -26
c-38 -19 -42 -18 -15 6 12 11 27 17 32 14 5 -3 -3 -12 -17 -20z m-1985 6 c0
-5 -4 -10 -10 -10 -5 0 -10 5 -10 10 0 6 5 10 10 10 6 0 10 -4 10 -10z m100 0
c0 -5 -12 -10 -26 -10 -14 0 -22 -4 -19 -10 4 -6 -1 -7 -11 -3 -13 5 -15 3 -9
-7 5 -8 3 -11 -5 -8 -24 8 -23 28 2 37 31 13 68 13 68 1z m800 4 c0 -9 -28
-34 -38 -34 -5 0 -15 -7 -22 -15 -6 -8 -15 -13 -19 -12 -4 1 -34 -17 -65 -41
-32 -24 -63 -41 -70 -39 -6 2 6 14 27 27 29 17 36 27 32 44 -2 11 -2 15 1 9 8
-18 29 -16 45 4 12 15 12 16 -3 10 -10 -4 -18 -2 -18 4 0 7 9 9 21 6 22 -6 89
21 89 35 0 4 5 8 10 8 6 0 10 -3 10 -6z m357 -18 c-12 -13 -26 -22 -31 -19 -5
4 1 14 13 25 33 26 43 22 18 -6z m-1292 -16 c-3 -5 -10 -10 -16 -10 -5 0 -9 5
-9 10 0 6 7 10 16 10 8 0 12 -4 9 -10z m-165 -9 c0 -11 -31 -24 -39 -16 -3 3
1 10 9 15 19 12 30 12 30 1z m1410 -18 c0 -10 -16 -29 -35 -42 -19 -13 -35
-27 -35 -32 0 -5 -7 -9 -15 -9 -8 0 -15 -5 -15 -10 0 -6 -16 -20 -35 -31 -19
-12 -35 -28 -35 -36 0 -8 -4 -12 -9 -8 -17 10 -5 58 18 73 19 13 21 13 15 -1
-3 -9 -13 -18 -22 -20 -13 -4 -14 -5 -2 -6 9 0 37 17 64 39 26 22 53 40 58 40
6 0 8 7 5 14 -4 10 -1 13 9 9 9 -3 14 2 14 16 0 12 5 21 10 21 6 0 10 -8 10
-17z m-1450 -20 c0 -3 -7 -3 -15 1 -13 5 -42 -30 -36 -44 1 -3 -5 -6 -13 -8
-27 -6 -18 32 12 49 24 14 52 15 52 2z m245 -11 c-4 -11 -2 -12 8 -4 10 8 13
6 14 -9 2 -23 -32 -26 -41 -3 -11 28 -7 44 10 37 8 -3 13 -12 9 -21z m-175 8
c0 -5 -5 -10 -11 -10 -5 0 -7 5 -4 10 3 6 8 10 11 10 2 0 4 -4 4 -10z m3244
-24 c-3 -8 -13 -16 -22 -19 -9 -3 -26 -8 -37 -12 -11 -3 -2 5 20 19 47 30 46
30 39 12z m-2084 -17 c0 -14 -17 -10 -23 5 -4 10 -1 13 9 9 7 -3 14 -9 14 -14z
m-1230 -11 c-27 -29 -10 -47 24 -24 35 22 46 20 17 -4 -29 -25 -21 -26 17 -2
16 9 27 23 25 30 -3 6 0 12 6 12 28 0 6 -38 -37 -66 -38 -25 -51 -29 -64 -20
-16 12 -18 16 -18 42 0 13 -6 10 -25 -10 -14 -15 -23 -32 -20 -37 4 -5 -8 -9
-25 -9 -27 0 -31 3 -28 22 2 13 12 24 25 28 13 3 32 13 44 23 11 10 27 16 34
13 7 -2 16 2 19 10 3 8 10 14 16 14 6 0 2 -10 -10 -22z m70 12 c0 -5 -5 -10
-11 -10 -5 0 -7 5 -4 10 3 6 8 10 11 10 2 0 4 -4 4 -10z m2055 -9 c-8 -14 -25
-14 -25 0 0 5 5 7 10 4 6 -3 10 -1 10 6 0 7 3 10 6 6 3 -3 3 -10 -1 -16z m135
10 c0 -5 -10 -11 -22 -14 -22 -6 -22 -6 -4 8 23 17 26 18 26 6z m90 0 c0 -4
-19 -21 -42 -37 -54 -36 -63 -44 -93 -71 -29 -28 -35 -28 -34 -5 0 16 87 82
109 82 5 0 10 4 10 8 0 5 10 14 23 20 28 14 27 13 27 3z m-1440 -26 c0 -15
-58 -51 -67 -41 -10 10 19 36 38 36 11 0 19 5 19 10 0 6 2 10 5 10 3 0 5 -7 5
-15z m290 11 c0 -3 -4 -8 -10 -11 -5 -3 -10 -1 -10 4 0 6 5 11 10 11 6 0 10
-2 10 -4z m1990 -6 c0 -5 -5 -10 -11 -10 -5 0 -7 5 -4 10 3 6 8 10 11 10 2 0
4 -4 4 -10z m-2359 -31 c-34 -28 -49 -23 -15 6 15 13 31 22 34 19 3 -3 -6 -14
-19 -25z m2399 24 c0 -14 -14 -28 -57 -59 -24 -17 -40 -34 -36 -38 12 -12 -21
-27 -46 -20 -21 5 -23 3 -12 -10 11 -13 11 -16 -3 -17 -33 -3 -37 -4 -45 -18
-5 -8 -14 -10 -21 -6 -9 5 -11 4 -6 -4 4 -6 0 -14 -11 -18 -10 -4 -27 -15 -37
-25 -11 -10 -25 -18 -31 -18 -7 0 -20 -9 -29 -19 -10 -11 -28 -22 -42 -25 -13
-4 -24 -11 -24 -16 0 -6 -7 -10 -15 -10 -8 0 -15 -4 -15 -10 0 -5 -7 -10 -15
-10 -23 0 -18 27 9 42 13 7 52 37 87 65 108 89 202 155 196 138 -6 -13 -2 -13
25 2 17 10 41 24 54 31 13 7 24 17 24 22 0 5 7 7 15 4 9 -4 15 0 15 10 0 9 5
16 10 16 6 0 10 -3 10 -7z m-2116 -48 c-15 -14 -30 -23 -33 -19 -6 6 38 43 52
44 4 0 -4 -11 -19 -25z m936 20 c0 -2 -10 -10 -22 -16 -21 -11 -22 -11 -9 4
13 16 31 23 31 12z m420 -9 c0 -2 -7 -9 -15 -16 -12 -10 -15 -10 -15 4 0 9 7
16 15 16 8 0 15 -2 15 -4z m650 -11 c0 -8 -7 -15 -16 -15 -14 0 -14 3 -4 15 7
8 14 15 16 15 2 0 4 -7 4 -15z m-2280 -4 c0 -5 -10 -13 -22 -16 -13 -4 -33
-16 -45 -28 -22 -20 -46 -35 -93 -59 -14 -7 -31 -20 -37 -30 -7 -9 -40 -35
-74 -57 -34 -23 -56 -41 -50 -41 7 0 10 -4 6 -9 -8 -14 -45 -9 -45 6 0 8 6 16
14 19 8 3 13 11 10 18 -5 13 65 66 86 66 6 0 8 5 4 12 -5 7 0 9 14 6 12 -4 20
-1 19 5 -1 6 8 15 19 22 12 6 28 16 36 23 8 6 18 9 21 5 4 -3 7 1 7 9 0 17 26
31 41 23 5 -4 6 1 3 9 -7 19 12 22 19 4 4 -9 8 -10 14 -2 14 19 53 30 53 15z
m225 -10 c4 -10 -3 -23 -17 -34 -13 -10 -31 -24 -40 -32 -10 -8 -20 -10 -23
-5 -4 6 -2 10 4 10 6 0 14 12 17 28 4 15 11 32 15 38 13 16 37 13 44 -5z m171
-7 c-30 -21 -42 -17 -15 5 13 11 26 17 29 14 3 -2 -4 -11 -14 -19z m-1186 2
c0 -11 -19 -15 -25 -6 -3 5 1 10 9 10 9 0 16 -2 16 -4z m2360 -6 c0 -5 -5 -10
-11 -10 -5 0 -7 5 -4 10 3 6 8 10 11 10 2 0 4 -4 4 -10z m760 -10 c0 -5 -5
-10 -11 -10 -5 0 -7 5 -4 10 3 6 8 10 11 10 2 0 4 -4 4 -10z m-2184 -11 c8
-14 -11 -33 -25 -25 -11 7 -4 36 9 36 5 0 12 -5 16 -11z m254 -3 c0 -3 -4 -8
-10 -11 -5 -3 -10 -1 -10 4 0 6 5 11 10 11 6 0 10 -2 10 -4z m-30 -15 c0 -15
-149 -123 -160 -116 -16 10 -12 25 5 19 9 -4 23 2 33 13 9 11 25 22 35 26 13
5 16 13 12 27 -6 19 6 25 42 21 6 -1 14 3 18 9 8 12 15 13 15 1z m-257 -8 c4
-3 -2 -13 -14 -21 -24 -17 -37 -9 -19 13 14 16 23 19 33 8z m1380 -1 c2 7 8
10 12 5 5 -4 0 -14 -11 -22 -26 -20 -33 -19 -31 4 1 14 5 17 13 10 8 -7 14 -6
17 3z m-1353 -19 c-1 -5 -29 -26 -63 -47 -116 -73 -127 -81 -127 -88 0 -5 -7
-8 -15 -8 -8 0 -15 5 -15 10 0 6 5 10 10 10 6 0 10 5 10 11 0 5 -4 7 -10 4 -5
-3 -10 -1 -10 4 0 6 18 23 40 37 22 15 40 30 40 35 0 4 9 6 20 4 11 -2 20 1
20 7 0 6 10 8 23 5 12 -3 31 1 41 9 22 15 36 18 36 7z m145 -13 c-3 -5 -10
-10 -16 -10 -5 0 -9 5 -9 10 0 6 7 10 16 10 8 0 12 -4 9 -10z m155 -6 c0 -8
-43 -43 -54 -44 -5 0 1 11 14 25 22 24 40 32 40 19z m2000 -54 c0 -5 -7 -10
-15 -10 -8 0 -15 5 -15 10 0 6 7 10 15 10 8 0 15 -4 15 -10z m-2531 -47 c-1
-12 -90 -75 -96 -69 -8 8 68 76 84 76 7 0 13 -3 12 -7z m2491 2 c0 -14 -97
-95 -110 -93 -22 5 -18 33 5 33 20 0 45 16 74 48 15 16 31 23 31 12z m-2580
-35 c0 -5 -12 -16 -27 -24 -54 -30 -98 -50 -105 -48 -5 1 -8 -2 -8 -8 0 -5 -9
-10 -20 -10 -13 0 -20 7 -20 20 0 17 7 20 41 20 32 0 42 4 46 19 4 17 45 37
66 33 4 -1 7 3 7 9 0 5 5 7 10 4 6 -3 10 -10 10 -15z m350 -51 c-14 -12 -26
-16 -28 -10 -2 6 -8 11 -13 11 -4 0 -6 -7 -3 -15 4 -8 2 -15 -4 -15 -5 0 -12
6 -15 14 -6 15 19 30 34 20 5 -3 17 0 26 5 29 17 30 12 3 -10z m2260 14 c0 -5
-5 -15 -10 -23 -9 -13 -11 -13 -20 0 -15 22 -12 30 10 30 11 0 20 -3 20 -7z
m-610 -31 c0 -10 -41 -35 -47 -28 -8 8 8 27 18 21 5 -4 9 -1 9 4 0 6 5 11 10
11 6 0 10 -3 10 -8z m555 -12 c-3 -5 -10 -10 -16 -10 -5 0 -9 5 -9 10 0 6 7
10 16 10 8 0 12 -4 9 -10z m-2757 -37 c2 -9 -8 -13 -32 -13 -34 0 -44 8 -29
24 11 11 56 2 61 -11z m2677 -23 c-4 -6 -11 -8 -16 -5 -5 4 -9 -1 -9 -9 0 -9
-4 -16 -10 -16 -14 0 -12 27 3 33 21 9 38 7 32 -3z m-2747 -33 c-7 -7 -20 -16
-28 -20 -8 -4 -25 -14 -37 -23 -22 -16 -23 -15 -23 4 0 20 24 37 40 27 4 -3
13 2 20 10 7 8 19 15 27 15 12 0 12 -2 1 -13z m2629 -27 c10 0 12 -6 8 -21 -4
-12 -3 -19 2 -16 11 7 40 -10 31 -19 -4 -3 -21 0 -37 7 -22 10 -29 19 -25 31
7 24 2 23 -37 -12 -19 -16 -38 -30 -42 -30 -5 0 -5 -4 -2 -10 4 -6 -5 -9 -19
-8 -15 1 -26 6 -26 10 0 7 58 42 72 43 4 0 17 11 29 24 14 15 24 20 27 13 2
-7 10 -12 19 -12z m-2727 -29 c0 -10 -60 -61 -72 -61 -21 0 -5 29 22 40 17 7
30 16 30 21 0 5 5 9 10 9 6 0 10 -4 10 -9z m2004 -15 c-6 -16 -24 -23 -24 -8
0 10 22 33 27 28 2 -2 1 -11 -3 -20z m1176 -36 c-24 -15 -37 -11 -16 5 11 8
22 12 25 9 3 -3 -1 -9 -9 -14z m-420 -5 c0 -8 -4 -15 -10 -15 -5 0 -10 7 -10
15 0 8 5 15 10 15 6 0 10 -7 10 -15z m864 -50 c-4 -8 -10 -15 -16 -15 -5 0
-29 -13 -53 -30 -24 -16 -49 -30 -55 -30 -6 0 -15 -12 -21 -27 -8 -22 -12 -24
-19 -13 -8 12 -10 12 -10 1 0 -14 -28 -40 -44 -41 -5 0 -1 10 10 22 l19 22
-26 -20 c-15 -10 -25 -22 -22 -26 2 -5 -3 -8 -11 -8 -9 0 -16 -5 -16 -11 0 -6
-6 -9 -14 -6 -7 3 -20 -3 -29 -14 -9 -10 -23 -16 -32 -13 -17 7 -20 24 -4 24
13 0 60 36 54 42 -2 2 4 4 15 5 10 1 37 13 59 27 22 14 44 26 48 26 5 1 40 23
78 50 73 50 98 61 89 35z m-946 -13 c2 -7 -2 -10 -12 -6 -9 3 -16 11 -16 16 0
13 23 5 28 -10z m-98 -50 c0 -11 -14 -25 -32 -35 -49 -25 -118 -66 -166 -99
-24 -17 -46 -27 -49 -24 -7 7 18 28 57 48 14 7 37 21 51 31 24 17 26 23 18 50
-11 38 -9 40 24 24 28 -12 36 -27 15 -27 -6 0 -9 -2 -6 -5 2 -3 22 4 44 15 21
10 33 19 27 20 -18 0 -16 20 2 20 8 0 15 -8 15 -18z m30 3 c-7 -9 -15 -13 -17
-11 -7 7 7 26 19 26 6 0 6 -6 -2 -15z m105 -5 c-3 -5 -12 -10 -18 -10 -7 0 -6
4 3 10 19 12 23 12 15 0z m825 -20 c-24 -15 -37 -11 -16 5 11 8 22 12 25 9 3
-3 -1 -9 -9 -14z m-1110 -20 c-8 -5 -19 -10 -25 -10 -5 0 -3 5 5 10 8 5 20 10
25 10 6 0 3 -5 -5 -10z m430 -4 c0 -3 -4 -8 -10 -11 -5 -3 -10 -1 -10 4 0 6 5
11 10 11 6 0 10 -2 10 -4z m-470 -16 c0 -5 -3 -9 -7 -8 -9 3 -88 -48 -117 -74
-23 -20 -32 -22 -41 -8 -7 11 18 40 35 40 6 0 34 13 63 30 56 32 67 35 67 20z
m440 0 c0 -5 -4 -10 -10 -10 -5 0 -10 5 -10 10 0 6 5 10 10 10 6 0 10 -4 10
-10z m282 -30 c-17 -16 -22 -17 -22 -6 0 8 8 19 17 25 27 15 29 3 5 -19z
m-332 1 c0 -5 -7 -11 -15 -15 -9 -3 -15 0 -15 9 0 8 7 15 15 15 8 0 15 -4 15
-9z m-45 -31 c-3 -5 -11 -10 -16 -10 -6 0 -7 5 -4 10 3 6 11 10 16 10 6 0 7
-4 4 -10z m-895 -25 c-14 -17 -30 -20 -30 -6 0 5 8 12 18 14 9 3 19 5 21 6 2
0 -2 -6 -9 -14z m845 -5 c-3 -5 -15 -10 -25 -10 -10 0 -20 -4 -22 -10 -4 -13
-43 -18 -43 -5 0 6 4 9 8 7 4 -1 18 4 30 13 24 17 62 21 52 5z m593 -7 c2 -8
-6 -13 -22 -13 -13 0 -28 -5 -31 -11 -4 -5 -17 -15 -28 -20 -12 -5 -37 -18
-54 -29 -34 -20 -47 -14 -15 7 9 7 40 28 67 47 51 36 75 41 83 19z m-1478 -13
c0 -5 -4 -10 -10 -10 -5 0 -10 5 -10 10 0 6 5 10 10 10 6 0 10 -4 10 -10z
m1453 -35 c-3 -9 -8 -14 -10 -11 -3 3 -2 9 2 15 9 16 15 13 8 -4z m-153 -45
c0 -5 -5 -10 -11 -10 -5 0 -7 5 -4 10 3 6 8 10 11 10 2 0 4 -4 4 -10z m-63
-54 c-9 -7 -17 -18 -17 -25 0 -6 -7 -11 -15 -11 -8 0 -15 5 -15 10 0 6 5 10
11 10 5 0 7 5 3 12 -4 6 -3 8 3 5 6 -4 16 0 23 8 7 9 16 13 19 9 3 -3 -2 -11
-12 -18z m1343 4 c0 -5 -4 -10 -10 -10 -5 0 -10 5 -10 10 0 6 5 10 10 10 6 0
10 -4 10 -10z m-31 -13 c-22 -17 -83 -47 -87 -42 -3 3 -3 6 -1 8 36 21 85 44
88 41 2 -2 2 -5 0 -7z m-1399 -36 c0 -10 -40 -22 -52 -15 -18 11 -6 24 22 24
17 0 30 -4 30 -9z m1300 -9 c0 -11 -219 -116 -226 -109 -6 6 7 14 126 73 91
45 100 49 100 36z m-1370 -27 c0 -10 -10 -15 -30 -15 -47 0 -35 27 13 29 9 1
17 -6 17 -14z m87 8 c-4 -3 1 -12 11 -19 23 -17 12 -25 -38 -27 -53 -2 -62 15
-18 36 34 17 56 22 45 10z m303 -52 c0 -12 -29 -23 -41 -15 -5 3 -7 10 -4 15
8 12 45 12 45 0z m-630 -21 c0 -5 -7 -10 -15 -10 -8 0 -15 5 -15 10 0 6 7 10
15 10 8 0 15 -4 15 -10z m30 0 c0 -5 -2 -10 -4 -10 -3 0 -8 5 -11 10 -3 6 -1
10 4 10 6 0 11 -4 11 -10z m100 -10 c0 -5 -7 -10 -15 -10 -8 0 -15 5 -15 10 0
6 7 10 15 10 8 0 15 -4 15 -10z m1240 -21 c0 -14 -27 -10 -33 5 -4 10 0 12 14
9 10 -3 19 -9 19 -14z m-740 -1 c0 -4 -9 -8 -21 -8 -11 0 -18 4 -15 8 3 5 12
9 21 9 8 0 15 -4 15 -9z m550 8 c0 -3 -4 -8 -10 -11 -5 -3 -10 -1 -10 4 0 6 5
11 10 11 6 0 10 -2 10 -4z m-720 -13 c-1 -14 -90 -54 -90 -41 0 7 15 20 33 29
36 18 57 23 57 12z m-300 -18 c0 -8 -4 -15 -10 -15 -5 0 -10 7 -10 15 0 8 5
15 10 15 6 0 10 -7 10 -15z m425 -15 c-3 -5 -13 -10 -21 -10 -8 0 -14 5 -14
10 0 6 9 10 21 10 11 0 17 -4 14 -10z m-228 -27 c-3 -4 -35 -24 -71 -43 -77
-41 -92 -49 -128 -73 -15 -10 -35 -17 -45 -14 -14 3 -12 6 12 16 16 7 43 23
60 35 36 28 168 97 173 91 2 -2 2 -7 -1 -12z m111 -55 c-6 -18 -28 -21 -28 -4
0 9 7 16 16 16 9 0 14 -5 12 -12z m252 -8 c0 -5 -5 -10 -11 -10 -5 0 -7 5 -4
10 3 6 8 10 11 10 2 0 4 -4 4 -10z m-330 -45 c0 -8 -9 -15 -20 -15 -11 0 -20
7 -20 15 0 8 9 15 20 15 11 0 20 -7 20 -15z m490 -145 c0 -5 -4 -10 -10 -10
-5 0 -10 5 -10 10 0 6 5 10 10 10 6 0 10 -4 10 -10z m134 -34 c-6 -16 -34 -30
-34 -18 0 10 22 32 32 32 4 0 5 -6 2 -14z m-44 -24 c0 -11 -45 -32 -66 -32 -8
0 -12 -4 -9 -10 3 -5 0 -10 -7 -10 -7 0 -30 -11 -50 -25 -20 -14 -42 -25 -48
-25 -6 0 -30 -13 -53 -28 -23 -15 -53 -34 -67 -41 -40 -20 -87 -46 -114 -65
-14 -9 -26 -14 -26 -10 0 4 -7 1 -15 -6 -9 -7 -15 -8 -15 -2 0 12 109 86 117
79 3 -3 14 3 26 14 11 10 27 19 34 19 7 0 13 5 13 11 0 6 7 9 15 5 8 -3 15 0
15 7 0 13 55 41 78 40 6 -1 12 6 12 14 0 8 4 12 9 8 5 -3 12 -1 16 5 4 6 11 8
16 5 5 -4 9 -2 9 3 0 9 21 18 59 27 7 2 18 8 24 14 13 13 27 14 27 3z m340
-35 c-27 -15 -36 -14 -25 2 3 6 16 11 28 11 21 0 21 -1 -3 -13z m-65 -27 c-9
-14 -65 -42 -65 -33 0 9 50 42 63 43 5 0 5 -5 2 -10z m-510 -20 c-3 -5 -11
-10 -16 -10 -6 0 -7 5 -4 10 3 6 11 10 16 10 6 0 7 -4 4 -10z m195 1 c0 -6 -4
-13 -10 -16 -5 -3 -10 1 -10 9 0 9 5 16 10 16 6 0 10 -4 10 -9z m-37 -15 c4
-10 1 -13 -8 -9 -8 3 -12 9 -9 14 7 12 11 11 17 -5z m262 -15 c-3 -6 -14 -11
-23 -11 -13 0 -13 2 4 14 21 15 30 14 19 -3z m-305 -1 c0 -5 -4 -10 -10 -10
-5 0 -10 5 -10 10 0 6 5 10 10 10 6 0 10 -4 10 -10z m260 -19 c0 -8 -89 -51
-106 -51 -15 0 15 23 53 41 44 20 53 22 53 10z m-480 -11 c0 -5 -5 -10 -11
-10 -5 0 -7 5 -4 10 3 6 8 10 11 10 2 0 4 -4 4 -10z m153 -9 c-12 -10 -19 -21
-16 -25 6 -6 0 -8 -29 -10 -7 -1 -22 -9 -32 -18 -11 -10 -26 -18 -33 -18 -24
0 -13 17 25 36 20 10 39 22 42 25 8 10 44 28 55 28 6 0 0 -8 -12 -18z m47 15
c0 -3 -4 -8 -10 -11 -5 -3 -10 -1 -10 4 0 6 5 11 10 11 6 0 10 -2 10 -4z m300
-16 c-8 -5 -19 -10 -25 -10 -5 0 -3 5 5 10 8 5 20 10 25 10 6 0 3 -5 -5 -10z
m-240 -14 c0 -4 -59 -36 -67 -36 -1 0 -3 5 -3 10 0 6 7 10 15 10 8 0 15 5 15
10 0 6 9 10 20 10 11 0 20 -2 20 -4z m155 -26 c3 -5 1 -10 -4 -10 -6 0 -11 5
-11 10 0 6 2 10 4 10 3 0 8 -4 11 -10z m-420 -57 c-38 -28 -52 -33 -52 -18 0
8 4 12 7 10 4 -3 18 4 30 15 13 11 26 17 29 14 3 -3 -3 -12 -14 -21z m321 -4
c-26 -17 -50 -29 -53 -26 -3 4 8 14 26 24 17 10 31 21 31 26 0 4 10 7 22 7 17
0 11 -7 -26 -31z m-396 -37 c0 -5 -10 -14 -22 -21 -41 -22 -66 -37 -82 -50 -9
-8 -19 -11 -23 -7 -8 8 36 46 54 46 7 0 13 5 13 10 0 6 10 15 23 20 29 11 37
12 37 2z m330 -2 c0 -5 -5 -10 -11 -10 -5 0 -7 5 -4 10 3 6 8 10 11 10 2 0 4
-4 4 -10z m-40 -25 c-7 -8 -14 -15 -15 -15 -2 0 -5 7 -9 15 -4 10 1 15 16 15
17 0 18 -2 8 -15z m-75 -45 c-4 -6 8 -8 32 -5 l38 4 -25 -19 c-28 -22 -40 -25
-40 -9 0 5 -4 7 -10 4 -5 -3 -10 3 -10 14 0 12 5 21 11 21 5 0 7 -5 4 -10z
m-355 -13 c0 -14 -49 -42 -57 -33 -10 9 9 27 23 22 8 -3 14 1 14 9 0 8 5 15
10 15 6 0 10 -6 10 -13z m760 -7 c0 -5 -4 -10 -10 -10 -5 0 -10 5 -10 10 0 6
5 10 10 10 6 0 10 -4 10 -10z m-443 -20 c4 -13 3 -13 -6 0 -9 12 -11 10 -11
-12 0 -16 -4 -28 -10 -28 -5 0 -10 14 -10 31 0 23 4 30 17 27 9 -2 18 -10 20
-18z m49 -37 c-10 -10 -19 5 -10 18 6 11 8 11 12 0 2 -7 1 -15 -2 -18z m324
18 c0 -5 -13 -12 -30 -16 -16 -4 -30 -11 -30 -16 0 -5 -5 -9 -11 -9 -6 0 -31
-12 -57 -27 -26 -16 -50 -28 -54 -28 -3 0 -10 -3 -14 -7 -10 -11 -24 -10 -24
2 0 5 12 13 28 16 15 4 29 10 32 15 6 8 141 79 153 79 4 0 7 -4 7 -9z m-352
-33 c-3 -7 -13 -15 -24 -17 -16 -3 -17 -1 -5 13 16 19 34 21 29 4z m272 -153
c-7 -9 -15 -13 -17 -11 -7 7 7 26 19 26 6 0 6 -6 -2 -15z m410 4 c0 -5 -4 -7
-10 -4 -5 3 -10 1 -10 -4 0 -6 -8 -11 -17 -11 -16 1 -16 2 1 15 23 18 36 19
36 4z m-100 -45 c0 -4 -8 -13 -17 -20 -14 -11 -15 -13 -3 -14 9 0 6 -6 -9 -16
-14 -10 -26 -13 -30 -7 -9 15 -39 12 -45 -4 -4 -11 -1 -11 14 -3 26 14 26 -2
-1 -18 -19 -12 -59 -8 -59 6 0 10 95 62 114 62 9 0 16 5 16 10 0 6 5 10 10 10
6 0 10 -3 10 -6z m55 -4 c-3 -5 -11 -10 -16 -10 -6 0 -7 5 -4 10 3 6 11 10 16
10 6 0 7 -4 4 -10z m85 -80 c-8 -5 -19 -10 -25 -10 -5 0 -3 5 5 10 8 5 20 10
25 10 6 0 3 -5 -5 -10z m-140 -10 c0 -5 -5 -10 -11 -10 -5 0 -7 5 -4 10 3 6 8
10 11 10 2 0 4 -4 4 -10z m245 -10 c3 -5 1 -10 -4 -10 -6 0 -11 5 -11 10 0 6
2 10 4 10 3 0 8 -4 11 -10z m-155 -10 c0 -5 -7 -10 -16 -10 -8 0 -12 5 -9 10
3 6 10 10 16 10 5 0 9 -4 9 -10z m15 -30 c-3 -5 -11 -10 -16 -10 -6 0 -7 5 -4
10 3 6 11 10 16 10 6 0 7 -4 4 -10z m115 -21 c0 -6 -4 -8 -9 -4 -5 3 -13 1
-16 -5 -7 -11 -80 -60 -90 -60 -18 0 2 19 45 43 28 16 50 33 50 38 0 6 5 7 10
4 6 -3 10 -11 10 -16z m-150 5 c0 -3 -7 -12 -15 -21 -20 -19 -32 -10 -14 11
14 15 29 21 29 10z m-60 -44 c0 -5 -4 -10 -10 -10 -5 0 -10 5 -10 10 0 6 5 10
10 10 6 0 10 -4 10 -10z m-54 -36 c-22 -16 -36 -18 -36 -6 0 11 43 32 50 25 3
-3 -4 -11 -14 -19z m64 -1 c-1 -16 -60 -63 -79 -63 -5 0 -14 -7 -21 -15 -17
-21 -30 -19 -30 5 0 18 10 25 33 21 4 0 6 4 5 11 -3 10 66 57 85 58 4 0 7 -8
7 -17z m-123 -28 c-9 -8 -22 -15 -29 -15 -7 0 -2 9 12 20 28 21 40 19 17 -5z
m-59 -39 c-7 -8 -16 -12 -20 -9 -5 2 -8 -1 -8 -6 0 -6 -4 -11 -10 -11 -18 0
-10 17 13 28 31 15 40 14 25 -2z"/>
<path d="M929 3383 c-13 -16 -12 -17 4 -4 9 7 17 15 17 17 0 8 -8 3 -21 -13z"/>
<path d="M1080 3340 c0 -5 -12 -16 -27 -24 -16 -8 -21 -15 -13 -16 20 0 72 35
63 43 -9 10 -23 8 -23 -3z"/>
<path d="M2325 2670 c-3 -5 -1 -10 4 -10 6 0 11 5 11 10 0 6 -2 10 -4 10 -3 0
-8 -4 -11 -10z"/>
<path d="M5530 290 c-8 -5 -10 -10 -5 -10 6 0 17 5 25 10 8 5 11 10 5 10 -5 0
-17 -5 -25 -10z"/>
<path d="M1670 3745 c-7 -9 -19 -14 -26 -11 -7 3 -17 -1 -22 -7 -8 -9 -2 -12
21 -11 17 0 33 6 35 12 2 7 15 12 28 12 13 0 24 5 24 10 0 16 -46 12 -60 -5z"/>
<path d="M712 3530 c2 -8 -5 -23 -16 -33 -20 -18 -20 -18 11 -1 18 10 29 21
25 24 -4 3 -11 10 -16 15 -5 6 -7 4 -4 -5z"/>
<path d="M3165 3052 c-6 -4 -11 -14 -13 -22 -3 -12 0 -12 14 2 18 18 17 33 -1
20z"/>
<path d="M1250 3035 c-7 -8 -9 -15 -6 -15 4 0 14 7 22 15 9 8 11 15 6 15 -5 0
-15 -7 -22 -15z"/>
<path d="M2015 3020 c-3 -5 -1 -10 4 -10 6 0 11 5 11 10 0 6 -2 10 -4 10 -3 0
-8 -4 -11 -10z"/>
<path d="M3075 3000 c-3 -5 -1 -10 4 -10 6 0 11 5 11 10 0 6 -2 10 -4 10 -3 0
-8 -4 -11 -10z"/>
<path d="M2925 2905 c-55 -36 -92 -65 -83 -65 9 0 18 3 20 8 2 4 40 31 86 61
70 46 91 62 80 61 -2 0 -48 -30 -103 -65z"/>
<path d="M1823 2924 c-15 -14 -22 -22 -14 -18 9 4 12 3 7 -4 -4 -6 -13 -9 -21
-5 -17 6 -21 -12 -5 -22 5 -3 23 8 40 25 16 16 34 30 39 30 5 0 13 5 16 10 13
21 -35 9 -62 -16z"/>
<path d="M2956 2895 c-11 -8 -15 -15 -9 -15 6 0 16 7 23 15 16 19 11 19 -14 0z"/>
<path d="M3084 2874 c-18 -14 -18 -15 4 -4 12 6 22 13 22 15 0 8 -5 6 -26 -11z"/>
<path d="M1741 2866 c-8 -10 -9 -16 -1 -21 5 -3 13 1 16 10 9 22 -1 29 -15 11z"/>
<path d="M2999 2813 c-12 -16 -12 -17 2 -6 9 7 19 10 22 6 4 -3 7 -1 7 5 0 17
-16 15 -31 -5z"/>
<path d="M2845 2810 c-3 -5 -2 -10 4 -10 5 0 13 5 16 10 3 6 2 10 -4 10 -5 0
-13 -4 -16 -10z"/>
<path d="M2935 2800 c-7 -11 22 -26 32 -16 4 3 -1 6 -11 6 -9 0 -14 5 -11 10
3 6 4 10 1 10 -3 0 -8 -5 -11 -10z"/>
<path d="M1043 2732 c-8 -5 -9 -13 -3 -22 6 -8 10 -13 11 -10 0 3 2 13 4 23 4
19 4 19 -12 9z"/>
<path d="M1015 2690 c-3 -5 -1 -10 4 -10 6 0 11 5 11 10 0 6 -2 10 -4 10 -3 0
-8 -4 -11 -10z"/>
<path d="M1529 2673 c-13 -16 -12 -17 4 -4 16 13 21 21 13 21 -2 0 -10 -8 -17
-17z"/>
<path d="M950 2664 c0 -8 5 -12 10 -9 6 3 10 10 10 16 0 5 -4 9 -10 9 -5 0
-10 -7 -10 -16z"/>
<path d="M2649 2663 c-13 -17 -13 -17 6 -3 11 8 22 16 24 17 2 2 0 3 -6 3 -6
0 -17 -8 -24 -17z"/>
<path d="M1490 2649 c0 -5 5 -7 10 -4 6 3 10 8 10 11 0 2 -4 4 -10 4 -5 0 -10
-5 -10 -11z"/>
<path d="M2986 2644 c-11 -7 -18 -16 -15 -18 2 -2 13 2 23 10 11 7 18 16 15
18 -2 2 -13 -2 -23 -10z"/>
<path d="M2615 2639 c-4 -6 -5 -12 -2 -15 2 -3 7 2 10 11 7 17 1 20 -8 4z"/>
<path d="M2749 2633 c-13 -16 -12 -17 4 -4 16 13 21 21 13 21 -2 0 -10 -8 -17
-17z"/>
<path d="M848 2633 c6 -2 18 -2 25 0 6 3 1 5 -13 5 -14 0 -19 -2 -12 -5z"/>
<path d="M1465 2630 c-4 -6 -11 -8 -16 -5 -5 4 -9 1 -9 -4 0 -16 16 -13 30 4
7 8 10 15 7 15 -3 0 -9 -5 -12 -10z"/>
<path d="M2660 2607 c-13 -7 -35 -22 -49 -34 -13 -13 -28 -23 -33 -23 -5 0
-16 -6 -23 -12 -32 -29 -45 -38 -52 -38 -4 0 -19 -9 -33 -20 -16 -13 -2 -9 40
11 36 18 71 32 78 32 6 0 12 4 12 9 0 4 7 8 15 8 9 0 15 7 13 17 -2 10 7 22
20 29 22 11 52 35 42 33 -3 0 -16 -6 -30 -12z"/>
<path d="M2927 2602 c4 -9 -1 -12 -13 -10 -12 2 -19 -3 -19 -12 0 -19 -22 -33
-38 -24 -6 4 -9 4 -5 -1 5 -5 0 -13 -10 -19 -65 -39 -112 -72 -112 -78 0 -11
18 -10 24 1 9 13 157 93 163 88 2 -3 -38 -31 -89 -62 -51 -32 -112 -71 -136
-87 -46 -32 -73 -30 -32 2 14 11 20 20 13 20 -6 0 -18 -6 -25 -14 -8 -7 -27
-21 -43 -30 l-30 -17 33 6 c33 7 41 -2 20 -24 -16 -16 87 49 127 81 16 12 26
17 22 11 -5 -8 -3 -13 7 -13 31 0 15 -29 -34 -60 -28 -18 -49 -35 -46 -37 3
-3 20 7 38 21 38 28 103 58 133 61 10 1 34 -1 52 -6 22 -4 38 -3 46 5 13 13
47 28 47 21 0 -3 -21 -18 -47 -35 -27 -16 -44 -30 -39 -30 5 0 24 10 43 21 19
12 37 19 40 15 3 -3 12 3 20 14 8 11 21 20 29 20 9 0 12 5 8 12 -5 7 -2 9 7 6
8 -3 26 0 40 8 28 15 59 18 59 5 0 -8 -51 -25 -66 -21 -3 1 -11 -6 -18 -16 -7
-9 -18 -14 -24 -10 -7 4 -12 3 -12 -3 0 -6 -18 -20 -40 -31 -40 -20 -55 -35
-23 -23 12 5 14 3 8 -7 -6 -10 -4 -10 11 -2 14 8 23 7 36 -5 13 -11 18 -12 18
-4 0 7 10 22 23 33 12 11 15 16 7 12 -8 -4 -23 -14 -32 -22 -10 -8 -18 -11
-18 -6 0 17 55 43 83 40 14 -2 24 0 22 4 -4 7 40 50 51 50 3 0 4 -7 0 -15 -3
-8 -1 -15 3 -15 14 0 21 28 8 34 -8 3 -6 8 6 16 9 6 17 18 17 25 0 8 6 15 13
15 7 0 17 10 22 23 6 12 15 22 22 22 7 0 18 6 25 14 10 10 10 12 1 7 -7 -4
-13 -2 -13 5 0 8 -10 9 -31 5 -32 -6 -73 9 -64 23 5 8 -183 5 -214 -3 -9 -2
-27 -8 -41 -12 -21 -6 -23 -5 -13 7 10 12 8 15 -6 15 -12 0 -17 -5 -14 -14z
m3 -97 c-14 -16 -40 -20 -40 -6 0 10 17 19 39 20 11 1 11 -2 1 -14z m110 -31
c-23 -13 -47 -24 -54 -24 -7 0 -17 -5 -24 -12 -9 -9 -12 -9 -12 0 0 14 111 72
123 65 5 -3 -10 -16 -33 -29z m-160 11 c0 -9 -82 -56 -88 -51 -6 7 -7 6 38 34
35 21 50 27 50 17z m60 -54 c0 -11 -31 -24 -39 -16 -3 3 1 10 9 15 19 12 30
12 30 1z"/>
<path d="M3475 2539 c-4 -6 -5 -12 -2 -15 2 -3 7 2 10 11 7 17 1 20 -8 4z"/>
<path d="M2730 2500 c-13 -8 -13 -10 2 -10 9 0 20 5 23 10 8 13 -5 13 -25 0z"/>
<path d="M2654 2458 c-16 -12 -32 -27 -36 -33 -5 -6 -8 -6 -8 3 0 6 -5 12 -11
12 -5 0 -7 -4 -4 -10 11 -17 -5 -32 -21 -19 -8 7 -14 7 -14 1 0 -14 34 -25 38
-13 2 6 10 11 18 11 8 0 14 4 14 9 0 13 49 20 53 8 4 -13 37 -2 37 12 0 6 -7
8 -15 5 -8 -4 -15 -1 -15 5 0 6 5 11 10 11 6 0 10 5 10 10 0 17 -26 11 -56
-12z"/>
<path d="M1368 2453 c-10 -2 -18 -9 -18 -14 0 -6 8 -5 20 1 11 6 20 13 20 15
0 3 -1 4 -2 4 -2 -1 -11 -3 -20 -6z"/>
<path d="M2425 2451 c-3 -5 -1 -12 5 -16 5 -3 10 1 10 9 0 18 -6 21 -15 7z"/>
<path d="M1450 2425 c-11 -13 -10 -14 4 -9 9 3 16 10 16 15 0 13 -6 11 -20 -6z"/>
<path d="M1400 2395 c-14 -8 -20 -14 -14 -15 5 0 19 7 30 15 24 18 16 19 -16
0z"/>
<path d="M2390 2400 c-20 -12 -10 -19 14 -10 11 3 15 9 10 13 -6 3 -16 2 -24
-3z"/>
<path d="M2509 2337 l-24 -19 28 16 c15 9 27 12 27 6 0 -5 7 -10 15 -10 21 0
19 17 -4 23 -10 2 -29 -5 -42 -16z"/>
<path d="M2929 2323 c-13 -16 -12 -17 4 -4 16 13 21 21 13 21 -2 0 -10 -8 -17
-17z"/>
<path d="M2948 2312 c-31 -18 -36 -32 -13 -32 8 0 15 4 15 9 0 5 9 13 20 16
11 3 20 11 20 16 0 13 -11 11 -42 -9z"/>
<path d="M2664 2304 c-18 -14 -18 -15 4 -4 12 6 22 13 22 15 0 8 -5 6 -26 -11z"/>
<path d="M2425 2290 c-3 -6 1 -7 9 -4 18 7 21 14 7 14 -6 0 -13 -4 -16 -10z"/>
<path d="M2879 2263 c-13 -17 -13 -17 6 -3 11 8 22 16 24 17 2 2 0 3 -6 3 -6
0 -17 -8 -24 -17z"/>
<path d="M952 2220 c-29 -22 -57 -40 -62 -40 -6 0 -10 -7 -10 -16 0 -14 5 -13
33 5 17 11 31 26 29 32 -1 6 2 8 7 5 9 -6 66 42 59 50 -2 2 -27 -15 -56 -36z"/>
<path d="M2815 2210 c-3 -6 1 -7 9 -4 18 7 21 14 7 14 -6 0 -13 -4 -16 -10z"/>
<path d="M1445 2170 c3 -5 11 -10 16 -10 6 0 7 5 4 10 -3 6 -11 10 -16 10 -6
0 -7 -4 -4 -10z"/>
<path d="M2405 2120 c-3 -5 -1 -10 4 -10 6 0 11 5 11 10 0 6 -2 10 -4 10 -3 0
-8 -4 -11 -10z"/>
<path d="M4483 1973 c-7 -3 -13 -12 -13 -20 0 -9 -6 -13 -15 -9 -8 3 -15 1
-15 -4 0 -12 -75 -60 -94 -60 -8 0 -16 -7 -19 -15 -5 -11 3 -9 29 6 22 12 45
17 57 14 17 -5 18 -4 8 4 -12 8 -7 14 22 31 20 12 37 26 37 32 0 5 4 7 8 4 4
-2 14 -1 21 3 10 7 10 9 -1 13 -7 3 -19 3 -25 1z"/>
<path d="M4345 1920 c-3 -6 1 -7 9 -4 18 7 21 14 7 14 -6 0 -13 -4 -16 -10z"/>
<path d="M2966 1894 c-24 -23 -19 -27 9 -8 14 9 25 18 25 20 0 10 -20 3 -34
-12z"/>
<path d="M4115 1854 c-12 -19 -14 -29 -6 -37 8 -8 11 -5 11 10 0 16 5 20 19
16 15 -4 19 0 17 13 -4 28 -22 27 -41 -2z"/>
<path d="M4260 1870 c-8 -5 -12 -12 -9 -15 4 -3 12 1 19 10 14 17 11 19 -10 5z"/>
<path d="M4055 1817 c-11 -7 -22 -15 -25 -19 -3 -3 -25 -18 -50 -32 -25 -14
-38 -26 -30 -26 10 0 7 -7 -10 -21 l-25 -21 30 18 c17 9 35 24 41 32 7 9 16
12 24 7 8 -5 11 -4 7 2 -8 12 25 41 41 35 6 -2 19 1 29 7 11 6 13 11 5 11 -7
0 -10 5 -7 10 8 13 -5 12 -30 -3z"/>
<path d="M3209 1803 c-13 -16 -12 -17 4 -4 9 7 17 15 17 17 0 8 -8 3 -21 -13z"/>
<path d="M2999 1793 c-13 -15 -12 -15 9 -4 23 12 28 21 13 21 -5 0 -15 -7 -22
-17z"/>
<path d="M3800 1767 c-92 -54 -166 -95 -174 -95 -5 0 -12 -4 -15 -9 -13 -18
-121 -84 -130 -79 -5 3 -16 -6 -26 -20 l-16 -25 33 18 c18 10 38 18 43 18 6 0
20 10 33 23 12 12 29 22 38 22 9 0 12 5 8 12 -5 7 -2 9 9 5 8 -3 18 0 20 7 3
7 20 20 39 29 18 9 48 27 67 41 19 14 40 26 45 26 6 0 25 11 41 25 36 29 32
30 -15 2z"/>
<path d="M2960 1769 c0 -5 5 -7 10 -4 6 3 10 8 10 11 0 2 -4 4 -10 4 -5 0 -10
-5 -10 -11z"/>
<path d="M2917 1746 c-4 -10 -1 -13 8 -9 8 3 12 9 9 14 -7 12 -11 11 -17 -5z"/>
<path d="M2985 1690 c-3 -6 1 -7 9 -4 18 7 21 14 7 14 -6 0 -13 -4 -16 -10z"/>
<path d="M2936 1665 c-11 -8 -16 -15 -10 -15 5 0 18 7 28 15 11 8 16 15 10 15
-5 0 -18 -7 -28 -15z"/>
<path d="M3144 1650 c-6 -6 -24 -12 -41 -13 -17 -1 -29 -5 -27 -9 2 -4 -11
-12 -30 -19 -19 -7 -33 -17 -30 -21 3 -5 0 -15 -6 -23 -9 -11 -9 -15 -1 -15 6
0 11 5 11 11 0 6 9 9 20 6 11 -3 18 0 17 7 -1 6 6 10 15 10 10 -1 15 2 13 7
-3 4 12 20 35 34 22 14 40 27 40 30 0 8 -5 6 -16 -5z"/>
<path d="M3776 1623 c-16 -8 -38 -24 -49 -34 -11 -10 -23 -16 -27 -14 -4 2
-22 -9 -41 -26 -35 -31 -23 -27 46 17 22 13 55 32 73 41 17 9 32 20 32 25 0
10 1 10 -34 -9z"/>
<path d="M3380 1620 c-9 -6 -10 -10 -3 -10 6 0 15 5 18 10 8 12 4 12 -15 0z"/>
<path d="M5488 1595 c-48 -27 -56 -35 -26 -28 12 4 29 12 35 19 7 7 18 14 25
17 7 2 11 6 8 9 -3 3 -22 -5 -42 -17z"/>
<path d="M1190 1579 c0 -5 5 -7 10 -4 6 3 10 8 10 11 0 2 -4 4 -10 4 -5 0 -10
-5 -10 -11z"/>
<path d="M1613 1570 c-11 -16 -10 -18 1 -14 15 6 30 34 18 34 -4 0 -13 -9 -19
-20z"/>
<path d="M4085 1580 c-3 -5 -1 -10 4 -10 6 0 11 5 11 10 0 6 -2 10 -4 10 -3 0
-8 -4 -11 -10z"/>
<path d="M4055 1560 c3 -5 8 -10 11 -10 2 0 4 5 4 10 0 6 -5 10 -11 10 -5 0
-7 -4 -4 -10z"/>
<path d="M1135 1540 c-16 -11 -25 -20 -20 -20 10 0 64 39 55 40 -3 0 -18 -9
-35 -20z"/>
<path d="M5396 1545 c-19 -15 -19 -15 3 -15 12 0 20 4 17 9 -4 5 0 12 6 14 7
3 9 6 3 6 -5 0 -19 -6 -29 -14z"/>
<path d="M3233 1509 c-53 -31 -68 -44 -35 -32 25 10 108 63 96 63 -5 0 -33
-14 -61 -31z"/>
<path d="M3374 1498 l-19 -23 23 19 c12 11 22 21 22 23 0 8 -8 2 -26 -19z"/>
<path d="M3550 1504 c-17 -9 -20 -14 -9 -14 9 0 22 7 29 15 15 18 13 18 -20
-1z"/>
<path d="M5324 1504 c-18 -14 -18 -15 4 -4 12 6 22 13 22 15 0 8 -5 6 -26 -11z"/>
<path d="M5384 1495 c-10 -8 -14 -14 -9 -14 6 0 19 6 29 14 11 8 15 15 10 15
-6 0 -19 -7 -30 -15z"/>
<path d="M3317 1471 c-41 -26 -46 -36 -10 -17 17 9 35 20 38 26 8 13 6 12 -28
-9z"/>
<path d="M5274 1474 c-18 -14 -18 -15 4 -4 12 6 22 13 22 15 0 8 -5 6 -26 -11z"/>
<path d="M3895 1470 c-3 -6 1 -7 9 -4 18 7 21 14 7 14 -6 0 -13 -4 -16 -10z"/>
<path d="M3126 1451 c-26 -17 -36 -33 -18 -29 20 4 63 36 55 41 -5 3 -22 -2
-37 -12z"/>
<path d="M5230 1450 c-9 -6 -10 -10 -3 -10 6 0 15 5 18 10 8 12 4 12 -15 0z"/>
<path d="M3240 1429 c0 -5 5 -7 10 -4 6 3 10 8 10 11 0 2 -4 4 -10 4 -5 0 -10
-5 -10 -11z"/>
<path d="M5190 1430 c-13 -8 -12 -10 3 -10 9 0 17 5 17 10 0 12 -1 12 -20 0z"/>
<path d="M1000 1419 c0 -5 5 -7 10 -4 6 3 10 8 10 11 0 2 -4 4 -10 4 -5 0 -10
-5 -10 -11z"/>
<path d="M3065 1409 c-4 -6 -5 -12 -2 -15 2 -3 7 2 10 11 7 17 1 20 -8 4z"/>
<path d="M5170 1390 c-9 -6 -10 -10 -3 -10 6 0 15 5 18 10 8 12 4 12 -15 0z"/>
<path d="M5201 1379 c-13 -11 -31 -17 -38 -15 -8 3 -11 1 -8 -4 3 -5 -5 -15
-19 -22 -14 -6 -26 -15 -26 -20 0 -4 -6 -8 -12 -8 -7 0 -26 -12 -43 -26 l-30
-26 32 21 c17 12 34 21 38 21 3 0 21 11 38 24 18 13 54 36 81 50 27 14 41 26
30 26 -10 -1 -30 -10 -43 -21z"/>
<path d="M5010 1370 c-9 -6 -10 -10 -3 -10 6 0 15 5 18 10 8 12 4 12 -15 0z"/>
<path d="M5107 1373 c-10 -9 -9 -23 1 -23 5 0 9 7 9 15 0 17 -1 18 -10 8z"/>
<path d="M4900 1339 c0 -5 5 -7 10 -4 6 3 10 8 10 11 0 2 -4 4 -10 4 -5 0 -10
-5 -10 -11z"/>
<path d="M4179 1293 c-13 -15 -12 -15 9 -4 23 12 28 21 13 21 -5 0 -15 -7 -22
-17z"/>
<path d="M680 1290 c-8 -5 -12 -12 -9 -15 4 -3 12 1 19 10 14 17 11 19 -10 5z"/>
<path d="M985 1274 c-19 -15 -22 -21 -9 -15 18 9 52 41 43 41 -2 0 -17 -12
-34 -26z"/>
<path d="M4855 1280 c-3 -5 -2 -10 4 -10 5 0 13 5 16 10 3 6 2 10 -4 10 -5 0
-13 -4 -16 -10z"/>
<path d="M4200 1242 c0 -9 -77 -62 -89 -62 -5 0 -16 -9 -26 -20 -19 -21 -19
-21 6 -8 70 37 141 98 114 98 -3 0 -5 -4 -5 -8z"/>
<path d="M4750 1239 c0 -5 5 -7 10 -4 6 3 10 8 10 11 0 2 -4 4 -10 4 -5 0 -10
-5 -10 -11z"/>
<path d="M4970 1209 c-17 -13 -18 -17 -5 -10 33 17 51 31 40 31 -5 0 -21 -10
-35 -21z"/>
<path d="M4686 1205 c-11 -8 -15 -15 -9 -15 6 0 16 7 23 15 16 19 11 19 -14 0z"/>
<path d="M880 1195 c-7 -8 -19 -15 -26 -15 -8 0 -14 -5 -14 -10 0 -7 6 -7 18
-1 19 10 49 41 39 41 -2 0 -10 -7 -17 -15z"/>
<path d="M4538 1150 c-37 -23 -70 -46 -74 -52 -8 -12 54 23 95 54 13 10 30 18
37 18 8 0 14 5 14 10 0 14 3 15 -72 -30z"/>
<path d="M4635 1170 c-3 -6 1 -7 9 -4 18 7 21 14 7 14 -6 0 -13 -4 -16 -10z"/>
<path d="M786 1130 c-22 -17 -35 -30 -30 -30 9 1 83 59 74 59 -3 0 -23 -13
-44 -29z"/>
<path d="M4290 1115 c-7 -8 -9 -15 -5 -15 4 0 -3 -9 -16 -21 l-24 -21 31 21
c17 11 31 27 31 35 0 20 -1 20 -17 1z"/>
<path d="M4375 1110 c-16 -11 -25 -20 -20 -20 10 0 64 39 55 40 -3 0 -18 -9
-35 -20z"/>
<path d="M3458 1083 c-26 -15 -46 -29 -43 -31 5 -5 95 46 95 53 0 7 1 7 -52
-22z"/>
<path d="M4197 1064 c-19 -10 -27 -21 -23 -31 4 -11 2 -13 -9 -9 -9 3 -19 -3
-25 -14 -6 -11 -8 -20 -5 -20 14 0 55 34 55 45 0 7 10 20 23 28 28 20 20 21
-16 1z"/>
<path d="M4396 1054 c-5 -14 -4 -15 9 -4 17 14 19 20 6 20 -5 0 -12 -7 -15
-16z"/>
<path d="M4216 1045 c-11 -8 -15 -15 -9 -15 6 0 16 7 23 15 16 19 11 19 -14 0z"/>
<path d="M4633 1009 c-39 -27 -61 -51 -30 -33 33 21 89 64 81 64 -5 -1 -28
-14 -51 -31z"/>
<path d="M4100 980 c-9 -6 -10 -10 -3 -10 6 0 15 5 18 10 8 12 4 12 -15 0z"/>
<path d="M4492 966 c-43 -24 -50 -32 -36 -44 4 -4 4 -2 1 4 -4 7 3 14 16 18
19 5 80 46 67 45 -3 0 -24 -10 -48 -23z"/>
<path d="M734 948 l-19 -23 23 19 c21 18 27 26 19 26 -2 0 -12 -10 -23 -22z"/>
<path d="M4049 949 l-24 -20 28 17 c15 9 27 18 27 20 0 8 -8 4 -31 -17z"/>
<path d="M4549 949 c-23 -19 -23 -20 -2 -10 12 6 25 16 28 21 10 16 -1 12 -26
-11z"/>
<path d="M4388 893 c-10 -2 -18 -8 -18 -13 0 -4 -11 -11 -25 -14 -14 -4 -25
-13 -25 -21 0 -12 5 -11 30 3 16 9 30 20 30 25 0 4 6 7 14 7 8 0 18 5 21 10 6
10 2 11 -27 3z"/>
<path d="M4355 820 c-16 -11 -25 -20 -20 -20 10 0 64 39 55 40 -3 0 -18 -9
-35 -20z"/>
<path d="M4240 729 c0 -5 5 -7 10 -4 6 3 10 8 10 11 0 2 -4 4 -10 4 -5 0 -10
-5 -10 -11z"/>
<path d="M4185 699 c-4 -6 -5 -12 -2 -15 2 -3 7 2 10 11 7 17 1 20 -8 4z"/>
<path d="M4895 667 c-22 -12 -42 -24 -45 -27 -11 -11 -73 -40 -86 -40 -8 0
-14 -4 -14 -10 0 -5 -6 -10 -14 -10 -8 0 -16 -4 -18 -8 -1 -4 -46 -36 -98 -70
-100 -65 -117 -83 -30 -32 28 17 55 30 60 30 4 0 10 4 12 8 2 4 30 21 63 37
47 23 203 121 224 141 11 11 -18 0 -54 -19z"/>
<path d="M5060 670 c-13 -8 -12 -10 3 -10 9 0 17 5 17 10 0 12 -1 12 -20 0z"/>
<path d="M4640 660 c-8 -5 -10 -10 -5 -10 6 0 17 5 25 10 8 5 11 10 5 10 -5 0
-17 -5 -25 -10z"/>
<path d="M4724 653 c2 -9 8 -18 15 -19 6 -1 7 0 2 2 -6 3 -7 12 -4 20 3 8 1
14 -5 14 -6 0 -9 -8 -8 -17z"/>
<path d="M5002 635 c-13 -7 -20 -15 -15 -18 5 -3 20 3 33 14 28 21 17 24 -18
4z"/>
<path d="M4675 600 c-3 -5 -1 -10 4 -10 6 0 11 5 11 10 0 6 -2 10 -4 10 -3 0
-8 -4 -11 -10z"/>
<path d="M4875 470 c-3 -6 1 -7 9 -4 18 7 21 14 7 14 -6 0 -13 -4 -16 -10z"/>
<path d="M4707 449 c-9 -5 -22 -7 -29 -3 -7 4 -8 3 -4 -4 4 -7 2 -12 -3 -12
-6 0 -11 -4 -11 -10 0 -16 15 -11 46 15 30 26 31 31 1 14z"/>
<path d="M4815 437 c-11 -7 -22 -15 -25 -18 -12 -15 -68 -38 -76 -31 -5 4 -5
3 -1 -3 4 -5 -7 -17 -25 -27 -29 -15 -30 -17 -10 -18 21 0 57 18 89 45 7 5 19
16 27 23 8 6 19 12 25 12 5 0 11 7 15 15 6 17 7 17 -19 2z"/>
<path d="M5053 396 c-29 -18 -61 -40 -71 -49 -10 -9 -22 -17 -26 -17 -4 0 -19
-9 -33 -20 -62 -48 22 -3 127 69 78 53 76 51 64 50 -5 0 -33 -15 -61 -33z"/>
<path d="M5319 403 c-13 -16 -12 -17 4 -4 9 7 17 15 17 17 0 8 -8 3 -21 -13z"/>
<path d="M4635 390 c-3 -6 1 -7 9 -4 18 7 21 14 7 14 -6 0 -13 -4 -16 -10z"/>
<path d="M5224 384 c-18 -14 -18 -15 4 -4 12 6 22 13 22 15 0 8 -5 6 -26 -11z"/>
<path d="M4905 380 c-3 -5 -2 -10 4 -10 5 0 13 5 16 10 3 6 2 10 -4 10 -5 0
-13 -4 -16 -10z"/>
<path d="M5273 383 c-15 -5 -17 -23 -4 -23 5 0 11 7 15 15 3 8 4 15 3 14 -1 0
-8 -3 -14 -6z"/>
<path d="M4600 365 c-8 -9 -8 -15 -2 -15 12 0 26 19 19 26 -2 2 -10 -2 -17
-11z"/>
<path d="M4860 359 c0 -5 5 -7 10 -4 6 3 10 8 10 11 0 2 -4 4 -10 4 -5 0 -10
-5 -10 -11z"/>
<path d="M5110 290 c-9 -6 -10 -10 -3 -10 6 0 15 5 18 10 8 12 4 12 -15 0z"/>
<path d="M5242 213 c-45 -31 -81 -58 -78 -60 2 -2 32 16 65 41 34 25 71 48 81
51 11 4 20 11 20 16 0 12 4 15 -88 -48z"/>
<path d="M5189 239 l-24 -20 28 17 c15 9 27 18 27 20 0 8 -8 4 -31 -17z"/>
<path d="M5565 240 c-3 -5 -2 -10 4 -10 5 0 13 5 16 10 3 6 2 10 -4 10 -5 0
-13 -4 -16 -10z"/>
<path d="M5150 198 c0 -6 -8 -21 -17 -32 -16 -17 -14 -17 15 3 18 12 30 27 27
32 -9 13 -25 11 -25 -3z"/>
<path d="M5105 179 c-4 -6 -5 -12 -2 -15 2 -3 7 2 10 11 7 17 1 20 -8 4z"/>
<path d="M5280 165 c-7 -8 -20 -15 -29 -15 -9 0 -22 -10 -30 -22 -13 -22 -13
-23 6 -5 11 9 24 17 30 17 5 0 18 9 28 20 10 11 16 20 13 20 -3 0 -11 -7 -18
-15z"/>
<path d="M4936 151 c-3 -5 1 -11 9 -14 9 -4 12 -1 8 9 -6 16 -10 17 -17 5z"/>
<path d="M5487 143 c-3 -5 -2 -16 2 -26 6 -16 8 -16 29 -2 12 9 22 21 22 28 0
8 -3 8 -12 -1 -15 -15 -32 -16 -23 -2 3 6 2 10 -4 10 -5 0 -12 -3 -14 -7z"/>
<path d="M5125 130 c-3 -6 1 -7 9 -4 18 7 21 14 7 14 -6 0 -13 -4 -16 -10z"/>
<path d="M5440 59 c0 -5 5 -7 10 -4 6 3 10 8 10 11 0 2 -4 4 -10 4 -5 0 -10
-5 -10 -11z"/>
<path d="M5354 18 l-19 -23 23 19 c12 11 22 21 22 23 0 8 -8 2 -26 -19z"/>
<path d="M5575 29 c-11 -17 1 -21 15 -4 8 9 8 15 2 15 -6 0 -14 -5 -17 -11z"/>
<path d="M5310 9 c0 -5 5 -7 10 -4 6 3 10 8 10 11 0 2 -4 4 -10 4 -5 0 -10 -5
-10 -11z"/>
</g>
</svg>
